<?xml version="1.0" encoding="UTF-8" standalone="no"?>
<!DOCTYPE svg PUBLIC "-//W3C//DTD SVG 1.1//EN"
 "http://www.w3.org/Graphics/SVG/1.1/DTD/svg11.dtd">
<!-- Generated by graphviz version 2.46.1 (20210213.1702)
 -->
<!-- Title: ATM Pages: 1 -->
<svg width="540pt" height="740pt"
 viewBox="0.00 0.00 539.94 740.00" xmlns="http://www.w3.org/2000/svg" xmlns:xlink="http://www.w3.org/1999/xlink">
<g id="graph0" class="graph" transform="scale(1 1) rotate(0) translate(4 736)">
<title>ATM</title>
<polygon fill="white" stroke="transparent" points="-4,4 -4,-736 535.94,-736 535.94,4 -4,4"/>
<!-- ready -->
<g id="node1" class="node">
<title>ready</title>
<ellipse fill="none" stroke="black" cx="431.94" cy="-714" rx="30.59" ry="18"/>
<text text-anchor="middle" x="431.94" y="-710.3" font-family="Times,serif" font-size="14.00">ready</text>
</g>
<!-- pin -->
<g id="node2" class="node">
<title>pin</title>
<ellipse fill="none" stroke="black" cx="391.94" cy="-627" rx="27" ry="18"/>
<text text-anchor="middle" x="391.94" y="-623.3" font-family="Times,serif" font-size="14.00">pin</text>
</g>
<!-- ready&#45;&gt;pin -->
<g id="edge1" class="edge">
<title>ready&#45;&gt;pin</title>
<path fill="none" stroke="black" d="M411.6,-700.06C404.34,-694.27 396.96,-686.77 392.94,-678 389.71,-670.95 388.61,-662.72 388.55,-655.01"/>
<polygon fill="black" stroke="black" points="392.05,-655.11 389.02,-644.96 385.06,-654.79 392.05,-655.11"/>
<text text-anchor="middle" x="425.94" y="-666.8" font-family="Times,serif" font-size="14.00"> insert&#45;card </text>
</g>
<!-- action -->
<g id="node3" class="node">
<title>action</title>
<ellipse fill="none" stroke="black" cx="271.94" cy="-540" rx="32.49" ry="18"/>
<text text-anchor="middle" x="271.94" y="-536.3" font-family="Times,serif" font-size="14.00">action</text>
</g>
<!-- pin&#45;&gt;action -->
<g id="edge2" class="edge">
<title>pin&#45;&gt;action</title>
<path fill="none" stroke="black" d="M373.98,-613.27C354.27,-599.31 322.39,-576.73 299.51,-560.53"/>
<polygon fill="black" stroke="black" points="301.41,-557.58 291.23,-554.66 297.36,-563.29 301.41,-557.58"/>
<text text-anchor="middle" x="364.44" y="-579.8" font-family="Times,serif" font-size="14.00"> confirm </text>
</g>
<!-- return&#45;card -->
<g id="node4" class="node">
<title>return&#45;card</title>
<ellipse fill="none" stroke="black" cx="419.94" cy="-18" rx="50.09" ry="18"/>
<text text-anchor="middle" x="419.94" y="-14.3" font-family="Times,serif" font-size="14.00">return&#45;card</text>
</g>
<!-- pin&#45;&gt;return&#45;card -->
<g id="edge3" class="edge">
<title>pin&#45;&gt;return&#45;card</title>
<path fill="none" stroke="black" d="M400.65,-609.91C408.87,-593.18 419.94,-566.01 419.94,-541 419.94,-541 419.94,-541 419.94,-104 419.94,-84.75 419.94,-63.05 419.94,-46.4"/>
<polygon fill="black" stroke="black" points="423.44,-46.26 419.94,-36.26 416.44,-46.26 423.44,-46.26"/>
<text text-anchor="middle" x="438.94" y="-318.8" font-family="Times,serif" font-size="14.00"> reject </text>
</g>
<!-- deposit&#45;account -->
<g id="node5" class="node">
<title>deposit&#45;account</title>
<ellipse fill="none" stroke="black" cx="67.94" cy="-453" rx="66.09" ry="18"/>
<text text-anchor="middle" x="67.94" y="-449.3" font-family="Times,serif" font-size="14.00">deposit&#45;account</text>
</g>
<!-- action&#45;&gt;deposit&#45;account -->
<g id="edge5" class="edge">
<title>action&#45;&gt;deposit&#45;account</title>
<path fill="none" stroke="black" d="M246.52,-528.41C212.83,-514.37 152.87,-489.39 111.8,-472.27"/>
<polygon fill="black" stroke="black" points="113.14,-469.04 102.57,-468.43 110.45,-475.5 113.14,-469.04"/>
<text text-anchor="middle" x="206.44" y="-492.8" font-family="Times,serif" font-size="14.00"> deposit </text>
</g>
<!-- withdrawal&#45;account -->
<g id="node10" class="node">
<title>withdrawal&#45;account</title>
<ellipse fill="none" stroke="black" cx="232.94" cy="-453" rx="80.69" ry="18"/>
<text text-anchor="middle" x="232.94" y="-449.3" font-family="Times,serif" font-size="14.00">withdrawal&#45;account</text>
</g>
<!-- action&#45;&gt;withdrawal&#45;account -->
<g id="edge10" class="edge">
<title>action&#45;&gt;withdrawal&#45;account</title>
<path fill="none" stroke="black" d="M264.24,-522.21C258.77,-510.29 251.33,-494.06 245.07,-480.42"/>
<polygon fill="black" stroke="black" points="248.12,-478.68 240.77,-471.05 241.76,-481.6 248.12,-478.68"/>
<text text-anchor="middle" x="283.44" y="-492.8" font-family="Times,serif" font-size="14.00"> withdraw </text>
</g>
<!-- return&#45;card&#45;&gt;ready -->
<g id="edge4" class="edge">
<title>return&#45;card&#45;&gt;ready</title>
<path fill="none" stroke="black" d="M437.59,-35.05C453.01,-50.91 472.94,-76.7 472.94,-104 472.94,-628 472.94,-628 472.94,-628 472.94,-651.08 469.29,-657.37 458.94,-678 456.97,-681.94 454.52,-685.87 451.92,-689.59"/>
<polygon fill="black" stroke="black" points="448.92,-687.75 445.69,-697.84 454.51,-691.97 448.92,-687.75"/>
<text text-anchor="middle" x="502.44" y="-362.3" font-family="Times,serif" font-size="14.00"> withdraw </text>
</g>
<!-- deposit&#45;amount -->
<g id="node6" class="node">
<title>deposit&#45;amount</title>
<ellipse fill="none" stroke="black" cx="67.94" cy="-366" rx="65.79" ry="18"/>
<text text-anchor="middle" x="67.94" y="-362.3" font-family="Times,serif" font-size="14.00">deposit&#45;amount</text>
</g>
<!-- deposit&#45;account&#45;&gt;deposit&#45;amount -->
<g id="edge6" class="edge">
<title>deposit&#45;account&#45;&gt;deposit&#45;amount</title>
<path fill="none" stroke="black" d="M67.94,-434.8C67.94,-423.16 67.94,-407.55 67.94,-394.24"/>
<polygon fill="black" stroke="black" points="71.44,-394.18 67.94,-384.18 64.44,-394.18 71.44,-394.18"/>
<text text-anchor="middle" x="92.44" y="-405.8" font-family="Times,serif" font-size="14.00"> provide </text>
</g>
<!-- confirm&#45;deposit -->
<g id="node7" class="node">
<title>confirm&#45;deposit</title>
<ellipse fill="none" stroke="black" cx="66.94" cy="-279" rx="66.89" ry="18"/>
<text text-anchor="middle" x="66.94" y="-275.3" font-family="Times,serif" font-size="14.00">confirm&#45;deposit</text>
</g>
<!-- deposit&#45;amount&#45;&gt;confirm&#45;deposit -->
<g id="edge7" class="edge">
<title>deposit&#45;amount&#45;&gt;confirm&#45;deposit</title>
<path fill="none" stroke="black" d="M67.74,-347.8C67.6,-336.16 67.42,-320.55 67.26,-307.24"/>
<polygon fill="black" stroke="black" points="70.76,-307.13 67.15,-297.18 63.76,-307.22 70.76,-307.13"/>
<text text-anchor="middle" x="92.44" y="-318.8" font-family="Times,serif" font-size="14.00"> provide </text>
</g>
<!-- collect&#45;envelope -->
<g id="node8" class="node">
<title>collect&#45;envelope</title>
<ellipse fill="none" stroke="black" cx="90.94" cy="-192" rx="68.79" ry="18"/>
<text text-anchor="middle" x="90.94" y="-188.3" font-family="Times,serif" font-size="14.00">collect&#45;envelope</text>
</g>
<!-- confirm&#45;deposit&#45;&gt;collect&#45;envelope -->
<g id="edge8" class="edge">
<title>confirm&#45;deposit&#45;&gt;collect&#45;envelope</title>
<path fill="none" stroke="black" d="M71.8,-260.8C75.12,-249.05 79.58,-233.24 83.37,-219.84"/>
<polygon fill="black" stroke="black" points="86.75,-220.75 86.09,-210.18 80.01,-218.85 86.75,-220.75"/>
<text text-anchor="middle" x="106.44" y="-231.8" font-family="Times,serif" font-size="14.00"> confirm </text>
</g>
<!-- continue -->
<g id="node9" class="node">
<title>continue</title>
<ellipse fill="none" stroke="black" cx="292.94" cy="-105" rx="40.89" ry="18"/>
<text text-anchor="middle" x="292.94" y="-101.3" font-family="Times,serif" font-size="14.00">continue</text>
</g>
<!-- collect&#45;envelope&#45;&gt;continue -->
<g id="edge9" class="edge">
<title>collect&#45;envelope&#45;&gt;continue</title>
<path fill="none" stroke="black" d="M124.94,-176.33C148.26,-166.3 179.94,-152.75 207.94,-141 223.01,-134.68 239.62,-127.82 254.13,-121.86"/>
<polygon fill="black" stroke="black" points="255.87,-124.93 263.79,-117.89 253.21,-118.45 255.87,-124.93"/>
<text text-anchor="middle" x="232.44" y="-144.8" font-family="Times,serif" font-size="14.00"> provide </text>
</g>
<!-- continue&#45;&gt;action -->
<g id="edge15" class="edge">
<title>continue&#45;&gt;action</title>
<path fill="none" stroke="black" d="M311.63,-121.23C317.57,-126.9 323.69,-133.73 327.94,-141 339.59,-160.92 341.94,-167.92 341.94,-191 341.94,-454 341.94,-454 341.94,-454 341.94,-481.27 320.22,-504.53 300.97,-519.8"/>
<polygon fill="black" stroke="black" points="298.83,-517.02 292.95,-525.83 303.04,-522.62 298.83,-517.02"/>
<text text-anchor="middle" x="369.44" y="-318.8" font-family="Times,serif" font-size="14.00"> continue </text>
</g>
<!-- continue&#45;&gt;return&#45;card -->
<g id="edge16" class="edge">
<title>continue&#45;&gt;return&#45;card</title>
<path fill="none" stroke="black" d="M314.49,-89.58C334.82,-75.97 365.54,-55.41 388.59,-39.99"/>
<polygon fill="black" stroke="black" points="390.64,-42.82 397.01,-34.35 386.75,-37.01 390.64,-42.82"/>
<text text-anchor="middle" x="382.94" y="-57.8" font-family="Times,serif" font-size="14.00"> finish </text>
</g>
<!-- withdrawal&#45;amount -->
<g id="node11" class="node">
<title>withdrawal&#45;amount</title>
<ellipse fill="none" stroke="black" cx="232.94" cy="-366" rx="79.89" ry="18"/>
<text text-anchor="middle" x="232.94" y="-362.3" font-family="Times,serif" font-size="14.00">withdrawal&#45;amount</text>
</g>
<!-- withdrawal&#45;account&#45;&gt;withdrawal&#45;amount -->
<g id="edge11" class="edge">
<title>withdrawal&#45;account&#45;&gt;withdrawal&#45;amount</title>
<path fill="none" stroke="black" d="M232.94,-434.8C232.94,-423.16 232.94,-407.55 232.94,-394.24"/>
<polygon fill="black" stroke="black" points="236.44,-394.18 232.94,-384.18 229.44,-394.18 236.44,-394.18"/>
<text text-anchor="middle" x="257.44" y="-405.8" font-family="Times,serif" font-size="14.00"> provide </text>
</g>
<!-- confirm&#45;withdrawal -->
<g id="node12" class="node">
<title>confirm&#45;withdrawal</title>
<ellipse fill="none" stroke="black" cx="232.94" cy="-279" rx="81.49" ry="18"/>
<text text-anchor="middle" x="232.94" y="-275.3" font-family="Times,serif" font-size="14.00">confirm&#45;withdrawal</text>
</g>
<!-- withdrawal&#45;amount&#45;&gt;confirm&#45;withdrawal -->
<g id="edge12" class="edge">
<title>withdrawal&#45;amount&#45;&gt;confirm&#45;withdrawal</title>
<path fill="none" stroke="black" d="M232.94,-347.8C232.94,-336.16 232.94,-320.55 232.94,-307.24"/>
<polygon fill="black" stroke="black" points="236.44,-307.18 232.94,-297.18 229.44,-307.18 236.44,-307.18"/>
<text text-anchor="middle" x="257.44" y="-318.8" font-family="Times,serif" font-size="14.00"> provide </text>
</g>
<!-- dispense&#45;cash -->
<g id="node13" class="node">
<title>dispense&#45;cash</title>
<ellipse fill="none" stroke="black" cx="247.94" cy="-192" rx="59.59" ry="18"/>
<text text-anchor="middle" x="247.94" y="-188.3" font-family="Times,serif" font-size="14.00">dispense&#45;cash</text>
</g>
<!-- confirm&#45;withdrawal&#45;&gt;dispense&#45;cash -->
<g id="edge13" class="edge">
<title>confirm&#45;withdrawal&#45;&gt;dispense&#45;cash</title>
<path fill="none" stroke="black" d="M235.98,-260.8C238.03,-249.16 240.79,-233.55 243.14,-220.24"/>
<polygon fill="black" stroke="black" points="246.62,-220.63 244.91,-210.18 239.73,-219.41 246.62,-220.63"/>
<text text-anchor="middle" x="266.44" y="-231.8" font-family="Times,serif" font-size="14.00"> confirm </text>
</g>
<!-- dispense&#45;cash&#45;&gt;continue -->
<g id="edge14" class="edge">
<title>dispense&#45;cash&#45;&gt;continue</title>
<path fill="none" stroke="black" d="M254.12,-173.93C257.92,-164.08 263.17,-151.58 268.94,-141 270.78,-137.63 272.86,-134.19 275.02,-130.83"/>
<polygon fill="black" stroke="black" points="278.08,-132.55 280.75,-122.3 272.27,-128.64 278.08,-132.55"/>
<text text-anchor="middle" x="298.44" y="-144.8" font-family="Times,serif" font-size="14.00"> withdraw </text>
</g>
</g>
</svg>
