<?xml version="1.0" encoding="UTF-8" standalone="no"?>
<!DOCTYPE svg PUBLIC "-//W3C//DTD SVG 1.1//EN"
 "http://www.w3.org/Graphics/SVG/1.1/DTD/svg11.dtd">
<!-- Generated by graphviz version 2.38.0 (20140413.2041)
 -->
<!-- Title: ATM Pages: 1 -->
<svg width="542pt" height="740pt"
 viewBox="0.00 0.00 541.59 740.00" xmlns="http://www.w3.org/2000/svg" xmlns:xlink="http://www.w3.org/1999/xlink">
<g id="graph0" class="graph" transform="scale(1 1) rotate(0) translate(4 736)">
<title>ATM</title>
<polygon fill="white" stroke="none" points="-4,4 -4,-736 537.594,-736 537.594,4 -4,4"/>
<!-- ready -->
<g id="node1" class="node"><title>ready</title>
<ellipse fill="none" stroke="black" cx="433.594" cy="-714" rx="30.5947" ry="18"/>
<text text-anchor="middle" x="433.594" y="-710.3" font-family="Times,serif" font-size="14.00">ready</text>
</g>
<!-- pin -->
<g id="node2" class="node"><title>pin</title>
<ellipse fill="none" stroke="black" cx="393.594" cy="-627" rx="27" ry="18"/>
<text text-anchor="middle" x="393.594" y="-623.3" font-family="Times,serif" font-size="14.00">pin</text>
</g>
<!-- ready&#45;&gt;pin -->
<g id="edge1" class="edge"><title>ready&#45;&gt;pin</title>
<path fill="none" stroke="black" d="M413.254,-700.062C405.988,-694.274 398.611,-686.767 394.594,-678 391.361,-670.946 390.264,-662.723 390.205,-655.007"/>
<polygon fill="black" stroke="black" points="393.704,-655.107 390.665,-644.957 386.711,-654.786 393.704,-655.107"/>
<text text-anchor="middle" x="427.594" y="-666.8" font-family="Times,serif" font-size="14.00"> insert&#45;card </text>
</g>
<!-- action -->
<g id="node3" class="node"><title>action</title>
<ellipse fill="none" stroke="black" cx="277.594" cy="-540" rx="32.4942" ry="18"/>
<text text-anchor="middle" x="277.594" y="-536.3" font-family="Times,serif" font-size="14.00">action</text>
</g>
<!-- pin&#45;&gt;action -->
<g id="edge2" class="edge"><title>pin&#45;&gt;action</title>
<path fill="none" stroke="black" d="M375.976,-613.09C357.064,-599.232 326.78,-577.042 304.803,-560.938"/>
<polygon fill="black" stroke="black" points="306.671,-557.967 296.536,-554.88 302.534,-563.614 306.671,-557.967"/>
<text text-anchor="middle" x="368.594" y="-579.8" font-family="Times,serif" font-size="14.00"> confirm </text>
</g>
<!-- return&#45;card -->
<g id="node4" class="node"><title>return&#45;card</title>
<ellipse fill="none" stroke="black" cx="421.594" cy="-18" rx="50.0912" ry="18"/>
<text text-anchor="middle" x="421.594" y="-14.3" font-family="Times,serif" font-size="14.00">return&#45;card</text>
</g>
<!-- pin&#45;&gt;return&#45;card -->
<g id="edge3" class="edge"><title>pin&#45;&gt;return&#45;card</title>
<path fill="none" stroke="black" d="M402.3,-609.906C410.519,-593.185 421.594,-566.015 421.594,-541 421.594,-541 421.594,-541 421.594,-104 421.594,-84.7526 421.594,-63.0535 421.594,-46.3973"/>
<polygon fill="black" stroke="black" points="425.094,-46.2564 421.594,-36.2564 418.094,-46.2565 425.094,-46.2564"/>
<text text-anchor="middle" x="440.594" y="-318.8" font-family="Times,serif" font-size="14.00"> reject </text>
</g>
<!-- deposit&#45;account -->
<g id="node5" class="node"><title>deposit&#45;account</title>
<ellipse fill="none" stroke="black" cx="68.594" cy="-453" rx="66.0889" ry="18"/>
<text text-anchor="middle" x="68.594" y="-449.3" font-family="Times,serif" font-size="14.00">deposit&#45;account</text>
</g>
<!-- action&#45;&gt;deposit&#45;account -->
<g id="edge5" class="edge"><title>action&#45;&gt;deposit&#45;account</title>
<path fill="none" stroke="black" d="M251.966,-528.577C217.483,-514.553 155.605,-489.387 113.351,-472.202"/>
<polygon fill="black" stroke="black" points="114.438,-468.866 103.856,-468.341 111.801,-475.351 114.438,-468.866"/>
<text text-anchor="middle" x="210.094" y="-492.8" font-family="Times,serif" font-size="14.00"> deposit </text>
</g>
<!-- withdrawal&#45;account -->
<g id="node10" class="node"><title>withdrawal&#45;account</title>
<ellipse fill="none" stroke="black" cx="234.594" cy="-453" rx="80.6858" ry="18"/>
<text text-anchor="middle" x="234.594" y="-449.3" font-family="Times,serif" font-size="14.00">withdrawal&#45;account</text>
</g>
<!-- action&#45;&gt;withdrawal&#45;account -->
<g id="edge10" class="edge"><title>action&#45;&gt;withdrawal&#45;account</title>
<path fill="none" stroke="black" d="M269.099,-522.207C263.013,-510.178 254.702,-493.748 247.761,-480.028"/>
<polygon fill="black" stroke="black" points="250.856,-478.393 243.219,-471.049 244.61,-481.552 250.856,-478.393"/>
<text text-anchor="middle" x="289.094" y="-492.8" font-family="Times,serif" font-size="14.00"> withdraw </text>
</g>
<!-- return&#45;card&#45;&gt;ready -->
<g id="edge4" class="edge"><title>return&#45;card&#45;&gt;ready</title>
<path fill="none" stroke="black" d="M439.242,-35.0541C454.66,-50.913 474.594,-76.6968 474.594,-104 474.594,-628 474.594,-628 474.594,-628 474.594,-651.077 470.943,-657.374 460.594,-678 458.619,-681.936 456.174,-685.865 453.567,-689.594"/>
<polygon fill="black" stroke="black" points="450.575,-687.748 447.34,-697.837 456.16,-691.968 450.575,-687.748"/>
<text text-anchor="middle" x="504.094" y="-362.3" font-family="Times,serif" font-size="14.00"> withdraw </text>
</g>
<!-- deposit&#45;amount -->
<g id="node6" class="node"><title>deposit&#45;amount</title>
<ellipse fill="none" stroke="black" cx="67.594" cy="-366" rx="65.7887" ry="18"/>
<text text-anchor="middle" x="67.594" y="-362.3" font-family="Times,serif" font-size="14.00">deposit&#45;amount</text>
</g>
<!-- deposit&#45;account&#45;&gt;deposit&#45;amount -->
<g id="edge6" class="edge"><title>deposit&#45;account&#45;&gt;deposit&#45;amount</title>
<path fill="none" stroke="black" d="M68.3916,-434.799C68.2547,-423.163 68.071,-407.548 67.9144,-394.237"/>
<polygon fill="black" stroke="black" points="71.4136,-394.134 67.7961,-384.175 64.414,-394.216 71.4136,-394.134"/>
<text text-anchor="middle" x="93.094" y="-405.8" font-family="Times,serif" font-size="14.00"> provide </text>
</g>
<!-- confirm&#45;deposit -->
<g id="node7" class="node"><title>confirm&#45;deposit</title>
<ellipse fill="none" stroke="black" cx="67.594" cy="-279" rx="67.6881" ry="18"/>
<text text-anchor="middle" x="67.594" y="-275.3" font-family="Times,serif" font-size="14.00">confirm&#45;deposit</text>
</g>
<!-- deposit&#45;amount&#45;&gt;confirm&#45;deposit -->
<g id="edge7" class="edge"><title>deposit&#45;amount&#45;&gt;confirm&#45;deposit</title>
<path fill="none" stroke="black" d="M67.594,-347.799C67.594,-336.163 67.594,-320.548 67.594,-307.237"/>
<polygon fill="black" stroke="black" points="71.0941,-307.175 67.594,-297.175 64.0941,-307.175 71.0941,-307.175"/>
<text text-anchor="middle" x="92.094" y="-318.8" font-family="Times,serif" font-size="14.00"> provide </text>
</g>
<!-- collect&#45;envelope -->
<g id="node8" class="node"><title>collect&#45;envelope</title>
<ellipse fill="none" stroke="black" cx="93.594" cy="-192" rx="68.7879" ry="18"/>
<text text-anchor="middle" x="93.594" y="-188.3" font-family="Times,serif" font-size="14.00">collect&#45;envelope</text>
</g>
<!-- confirm&#45;deposit&#45;&gt;collect&#45;envelope -->
<g id="edge8" class="edge"><title>confirm&#45;deposit&#45;&gt;collect&#45;envelope</title>
<path fill="none" stroke="black" d="M72.8555,-260.799C76.4501,-249.047 81.2858,-233.238 85.3835,-219.842"/>
<polygon fill="black" stroke="black" points="88.7622,-220.762 88.3403,-210.175 82.0683,-218.714 88.7622,-220.762"/>
<text text-anchor="middle" x="108.594" y="-231.8" font-family="Times,serif" font-size="14.00"> confirm </text>
</g>
<!-- continue -->
<g id="node9" class="node"><title>continue</title>
<ellipse fill="none" stroke="black" cx="287.594" cy="-105" rx="40.8928" ry="18"/>
<text text-anchor="middle" x="287.594" y="-101.3" font-family="Times,serif" font-size="14.00">continue</text>
</g>
<!-- collect&#45;envelope&#45;&gt;continue -->
<g id="edge9" class="edge"><title>collect&#45;envelope&#45;&gt;continue</title>
<path fill="none" stroke="black" d="M127.386,-176.194C161.621,-161.195 214.46,-138.043 249.999,-122.472"/>
<polygon fill="black" stroke="black" points="251.779,-125.513 259.534,-118.294 248.97,-119.102 251.779,-125.513"/>
<text text-anchor="middle" x="227.094" y="-144.8" font-family="Times,serif" font-size="14.00"> provide </text>
</g>
<!-- continue&#45;&gt;action -->
<g id="edge15" class="edge"><title>continue&#45;&gt;action</title>
<path fill="none" stroke="black" d="M309.628,-120.274C316.899,-125.949 324.436,-133.032 329.594,-141 342.135,-160.372 343.594,-167.923 343.594,-191 343.594,-454 343.594,-454 343.594,-454 343.594,-478.103 337.251,-484.866 322.594,-504 318.227,-509.701 312.72,-514.982 307.07,-519.624"/>
<polygon fill="black" stroke="black" points="304.626,-517.086 298.807,-525.94 308.877,-522.648 304.626,-517.086"/>
<text text-anchor="middle" x="371.094" y="-318.8" font-family="Times,serif" font-size="14.00"> continue </text>
</g>
<!-- continue&#45;&gt;return&#45;card -->
<g id="edge16" class="edge"><title>continue&#45;&gt;return&#45;card</title>
<path fill="none" stroke="black" d="M310.023,-89.7729C331.655,-76.0511 364.631,-55.133 389.13,-39.593"/>
<polygon fill="black" stroke="black" points="391.166,-42.4464 397.735,-34.1343 387.416,-36.5353 391.166,-42.4464"/>
<text text-anchor="middle" x="383.094" y="-57.8" font-family="Times,serif" font-size="14.00"> finish </text>
</g>
<!-- withdrawal&#45;amount -->
<g id="node11" class="node"><title>withdrawal&#45;amount</title>
<ellipse fill="none" stroke="black" cx="234.594" cy="-366" rx="79.8859" ry="18"/>
<text text-anchor="middle" x="234.594" y="-362.3" font-family="Times,serif" font-size="14.00">withdrawal&#45;amount</text>
</g>
<!-- withdrawal&#45;account&#45;&gt;withdrawal&#45;amount -->
<g id="edge11" class="edge"><title>withdrawal&#45;account&#45;&gt;withdrawal&#45;amount</title>
<path fill="none" stroke="black" d="M234.594,-434.799C234.594,-423.163 234.594,-407.548 234.594,-394.237"/>
<polygon fill="black" stroke="black" points="238.094,-394.175 234.594,-384.175 231.094,-394.175 238.094,-394.175"/>
<text text-anchor="middle" x="259.094" y="-405.8" font-family="Times,serif" font-size="14.00"> provide </text>
</g>
<!-- confirm&#45;withdrawal -->
<g id="node12" class="node"><title>confirm&#45;withdrawal</title>
<ellipse fill="none" stroke="black" cx="234.594" cy="-279" rx="81.4863" ry="18"/>
<text text-anchor="middle" x="234.594" y="-275.3" font-family="Times,serif" font-size="14.00">confirm&#45;withdrawal</text>
</g>
<!-- withdrawal&#45;amount&#45;&gt;confirm&#45;withdrawal -->
<g id="edge12" class="edge"><title>withdrawal&#45;amount&#45;&gt;confirm&#45;withdrawal</title>
<path fill="none" stroke="black" d="M234.594,-347.799C234.594,-336.163 234.594,-320.548 234.594,-307.237"/>
<polygon fill="black" stroke="black" points="238.094,-307.175 234.594,-297.175 231.094,-307.175 238.094,-307.175"/>
<text text-anchor="middle" x="259.094" y="-318.8" font-family="Times,serif" font-size="14.00"> provide </text>
</g>
<!-- dispense&#45;cash -->
<g id="node13" class="node"><title>dispense&#45;cash</title>
<ellipse fill="none" stroke="black" cx="250.594" cy="-192" rx="59.5901" ry="18"/>
<text text-anchor="middle" x="250.594" y="-188.3" font-family="Times,serif" font-size="14.00">dispense&#45;cash</text>
</g>
<!-- confirm&#45;withdrawal&#45;&gt;dispense&#45;cash -->
<g id="edge13" class="edge"><title>confirm&#45;withdrawal&#45;&gt;dispense&#45;cash</title>
<path fill="none" stroke="black" d="M237.832,-260.799C240.022,-249.163 242.961,-233.548 245.467,-220.237"/>
<polygon fill="black" stroke="black" points="248.951,-220.65 247.361,-210.175 242.071,-219.355 248.951,-220.65"/>
<text text-anchor="middle" x="269.594" y="-231.8" font-family="Times,serif" font-size="14.00"> confirm </text>
</g>
<!-- dispense&#45;cash&#45;&gt;continue -->
<g id="edge14" class="edge"><title>dispense&#45;cash&#45;&gt;continue</title>
<path fill="none" stroke="black" d="M257.143,-173.749C260.911,-164.055 265.83,-151.774 270.594,-141 271.933,-137.973 273.382,-134.822 274.85,-131.706"/>
<polygon fill="black" stroke="black" points="278.039,-133.15 279.22,-122.621 271.731,-130.115 278.039,-133.15"/>
<text text-anchor="middle" x="300.094" y="-144.8" font-family="Times,serif" font-size="14.00"> withdraw </text>
</g>
</g>
</svg>
