<?xml version="1.0" encoding="UTF-8" standalone="no"?>
<!DOCTYPE svg PUBLIC "-//W3C//DTD SVG 1.1//EN"
 "http://www.w3.org/Graphics/SVG/1.1/DTD/svg11.dtd">
<!-- Generated by graphviz version 2.40.1 (20161225.0304)
 -->
<!-- Title: ATM Pages: 1 -->
<svg width="500pt" height="712pt"
 viewBox="0.00 0.00 500.36 711.99" xmlns="http://www.w3.org/2000/svg" xmlns:xlink="http://www.w3.org/1999/xlink">
<g id="graph0" class="graph" transform="scale(1 1) rotate(0) translate(4 707.9922)">
<title>ATM</title>
<polygon fill="#ffffff" stroke="transparent" points="-4,4 -4,-707.9922 496.3631,-707.9922 496.3631,4 -4,4"/>
<!-- ready -->
<g id="node1" class="node">
<title>ready</title>
<ellipse fill="none" stroke="#696969" cx="413.3484" cy="-685.9922" rx="29.736" ry="18"/>
<text text-anchor="middle" x="413.3484" y="-682.0922" font-family="Helvetica,sans-Serif" font-size="13.00" fill="#696969">ready</text>
</g>
<!-- pin -->
<g id="node2" class="node">
<title>pin</title>
<ellipse fill="none" stroke="#696969" cx="379.3484" cy="-602.4932" rx="27" ry="18"/>
<text text-anchor="middle" x="379.3484" y="-598.5932" font-family="Helvetica,sans-Serif" font-size="13.00" fill="#696969">pin</text>
</g>
<!-- ready&#45;&gt;pin -->
<g id="edge1" class="edge">
<title>ready&#45;&gt;pin</title>
<path fill="none" stroke="#000000" d="M395.5157,-671.2699C389.6301,-665.334 383.7709,-657.9937 380.5555,-649.9922 378.1909,-644.1081 377.1376,-637.4746 376.8213,-631.0725"/>
<polygon fill="#000000" stroke="#000000" points="380.3234,-630.7104 376.8833,-620.6896 373.3235,-630.6685 380.3234,-630.7104"/>
<text text-anchor="middle" x="406.7449" y="-641.9922" font-family="Arial" font-size="10.00" fill="#696969"> insert&#45;card </text>
</g>
<!-- action -->
<g id="node3" class="node">
<title>action</title>
<ellipse fill="none" stroke="#696969" cx="294.3484" cy="-518.9941" rx="31.4095" ry="18"/>
<text text-anchor="middle" x="294.3484" y="-515.0941" font-family="Helvetica,sans-Serif" font-size="13.00" fill="#696969">action</text>
</g>
<!-- pin&#45;&gt;action -->
<g id="edge2" class="edge">
<title>pin&#45;&gt;action</title>
<path fill="none" stroke="#000000" d="M364.1521,-587.5652C351.2211,-574.8625 332.4419,-556.4149 317.6181,-541.8529"/>
<polygon fill="#000000" stroke="#000000" points="319.8652,-539.154 310.2786,-534.643 314.9597,-544.1477 319.8652,-539.154"/>
<text text-anchor="middle" x="360.5184" y="-558.4932" font-family="Arial" font-size="10.00" fill="#696969"> confirm </text>
</g>
<!-- return&#45;card -->
<g id="node4" class="node">
<title>return&#45;card</title>
<ellipse fill="none" stroke="#696969" cx="401.3484" cy="-18" rx="48.9745" ry="18"/>
<text text-anchor="middle" x="401.3484" y="-14.1" font-family="Helvetica,sans-Serif" font-size="13.00" fill="#696969">return&#45;card</text>
</g>
<!-- pin&#45;&gt;return&#45;card -->
<g id="edge3" class="edge">
<title>pin&#45;&gt;return&#45;card</title>
<path fill="none" stroke="#000000" d="M386.7966,-584.9295C393.179,-568.2709 401.3484,-542.3802 401.3484,-518.9941 401.3484,-518.9941 401.3484,-518.9941 401.3484,-101.499 401.3484,-83.2427 401.3484,-62.741 401.3484,-46.6214"/>
<polygon fill="#000000" stroke="#000000" points="404.8485,-46.2432 401.3484,-36.2432 397.8485,-46.2433 404.8485,-46.2432"/>
<text text-anchor="middle" x="416.3533" y="-307.9961" font-family="Arial" font-size="10.00" fill="#696969"> reject </text>
</g>
<!-- deposit&#45;account -->
<g id="node5" class="node">
<title>deposit&#45;account</title>
<ellipse fill="none" stroke="#696969" cx="66.3484" cy="-435.4951" rx="66.1972" ry="18"/>
<text text-anchor="middle" x="66.3484" y="-431.5951" font-family="Helvetica,sans-Serif" font-size="13.00" fill="#696969">deposit&#45;account</text>
</g>
<!-- action&#45;&gt;deposit&#45;account -->
<g id="edge5" class="edge">
<title>action&#45;&gt;deposit&#45;account</title>
<path fill="none" stroke="#000000" d="M267.7477,-509.2523C230.5703,-495.6371 162.4003,-470.6716 115.7587,-453.5903"/>
<polygon fill="#000000" stroke="#000000" points="116.7453,-450.2244 106.1516,-450.072 114.3381,-456.7975 116.7453,-450.2244"/>
<text text-anchor="middle" x="213.2498" y="-474.9941" font-family="Arial" font-size="10.00" fill="#696969"> deposit </text>
</g>
<!-- withdrawal&#45;account -->
<g id="node10" class="node">
<title>withdrawal&#45;account</title>
<ellipse fill="none" stroke="#696969" cx="229.3484" cy="-435.4951" rx="78.1972" ry="18"/>
<text text-anchor="middle" x="229.3484" y="-431.5951" font-family="Helvetica,sans-Serif" font-size="13.00" fill="#696969">withdrawal&#45;account</text>
</g>
<!-- action&#45;&gt;withdrawal&#45;account -->
<g id="edge10" class="edge">
<title>action&#45;&gt;withdrawal&#45;account</title>
<path fill="none" stroke="#000000" d="M281.5065,-502.4974C272.3761,-490.7685 259.93,-474.7802 249.4857,-461.3634"/>
<polygon fill="#000000" stroke="#000000" points="252.1934,-459.1439 243.2888,-453.4029 246.6697,-463.4439 252.1934,-459.1439"/>
<text text-anchor="middle" x="287.8558" y="-474.9941" font-family="Arial" font-size="10.00" fill="#696969"> withdraw </text>
</g>
<!-- return&#45;card&#45;&gt;ready -->
<g id="edge4" class="edge">
<title>return&#45;card&#45;&gt;ready</title>
<path fill="none" stroke="#000000" d="M417.437,-35.0651C430.7021,-50.9719 447.3484,-76.0111 447.3484,-101.499 447.3484,-602.4932 447.3484,-602.4932 447.3484,-602.4932 447.3484,-623.0353 438.4124,-644.4606 429.7027,-660.4646"/>
<polygon fill="#000000" stroke="#000000" points="426.6225,-658.8 424.6699,-669.2133 432.6902,-662.2904 426.6225,-658.8"/>
<text text-anchor="middle" x="469.8558" y="-349.7456" font-family="Arial" font-size="10.00" fill="#696969"> withdraw </text>
</g>
<!-- deposit&#45;amount -->
<g id="node6" class="node">
<title>deposit&#45;amount</title>
<ellipse fill="none" stroke="#696969" cx="69.3484" cy="-351.9961" rx="65.0241" ry="18"/>
<text text-anchor="middle" x="69.3484" y="-348.0961" font-family="Helvetica,sans-Serif" font-size="13.00" fill="#696969">deposit&#45;amount</text>
</g>
<!-- deposit&#45;account&#45;&gt;deposit&#45;amount -->
<g id="edge6" class="edge">
<title>deposit&#45;account&#45;&gt;deposit&#45;amount</title>
<path fill="none" stroke="#000000" d="M66.9994,-417.3771C67.3886,-406.5446 67.8915,-392.5474 68.3321,-380.285"/>
<polygon fill="#000000" stroke="#000000" points="71.8373,-380.198 68.6988,-370.0788 64.8419,-379.9466 71.8373,-380.198"/>
<text text-anchor="middle" x="87.5257" y="-391.4951" font-family="Arial" font-size="10.00" fill="#696969"> provide </text>
</g>
<!-- confirm&#45;deposit -->
<g id="node7" class="node">
<title>confirm&#45;deposit</title>
<ellipse fill="none" stroke="#696969" cx="70.3484" cy="-268.4971" rx="64.6098" ry="18"/>
<text text-anchor="middle" x="70.3484" y="-264.5971" font-family="Helvetica,sans-Serif" font-size="13.00" fill="#696969">confirm&#45;deposit</text>
</g>
<!-- deposit&#45;amount&#45;&gt;confirm&#45;deposit -->
<g id="edge7" class="edge">
<title>deposit&#45;amount&#45;&gt;confirm&#45;deposit</title>
<path fill="none" stroke="#000000" d="M69.5654,-333.878C69.6952,-323.0456 69.8628,-309.0484 70.0096,-296.786"/>
<polygon fill="#000000" stroke="#000000" points="73.5118,-296.621 70.1319,-286.5798 66.5123,-296.5371 73.5118,-296.621"/>
<text text-anchor="middle" x="89.5257" y="-307.9961" font-family="Arial" font-size="10.00" fill="#696969"> provide </text>
</g>
<!-- collect&#45;envelope -->
<g id="node8" class="node">
<title>collect&#45;envelope</title>
<ellipse fill="none" stroke="#696969" cx="88.3484" cy="-184.998" rx="67.8623" ry="18"/>
<text text-anchor="middle" x="88.3484" y="-181.098" font-family="Helvetica,sans-Serif" font-size="13.00" fill="#696969">collect&#45;envelope</text>
</g>
<!-- confirm&#45;deposit&#45;&gt;collect&#45;envelope -->
<g id="edge8" class="edge">
<title>confirm&#45;deposit&#45;&gt;collect&#45;envelope</title>
<path fill="none" stroke="#000000" d="M74.2542,-250.379C76.6129,-239.4372 79.6678,-225.2663 82.3301,-212.9159"/>
<polygon fill="#000000" stroke="#000000" points="85.7643,-213.5938 84.4503,-203.0807 78.9215,-212.1186 85.7643,-213.5938"/>
<text text-anchor="middle" x="100.5184" y="-224.4971" font-family="Arial" font-size="10.00" fill="#696969"> confirm </text>
</g>
<!-- continue -->
<g id="node9" class="node">
<title>continue</title>
<ellipse fill="none" stroke="#696969" cx="296.3484" cy="-101.499" rx="40.2111" ry="18"/>
<text text-anchor="middle" x="296.3484" y="-97.599" font-family="Helvetica,sans-Serif" font-size="13.00" fill="#696969">continue</text>
</g>
<!-- collect&#45;envelope&#45;&gt;continue -->
<g id="edge9" class="edge">
<title>collect&#45;envelope&#45;&gt;continue</title>
<path fill="none" stroke="#000000" d="M126.0157,-169.877C162.9842,-155.0364 219.1447,-132.4915 256.7609,-117.3909"/>
<polygon fill="#000000" stroke="#000000" points="258.3978,-120.5054 266.3741,-113.5318 255.79,-114.0093 258.3978,-120.5054"/>
<text text-anchor="middle" x="224.5257" y="-140.998" font-family="Arial" font-size="10.00" fill="#696969"> provide </text>
</g>
<!-- continue&#45;&gt;action -->
<g id="edge15" class="edge">
<title>continue&#45;&gt;action</title>
<path fill="none" stroke="#000000" d="M309.77,-118.6542C321.0513,-134.8196 335.3484,-160.1986 335.3484,-184.998 335.3484,-435.4951 335.3484,-435.4951 335.3484,-435.4951 335.3484,-456.8884 324.3702,-478.4992 313.7753,-494.3742"/>
<polygon fill="#000000" stroke="#000000" points="310.9019,-492.3758 308.0008,-502.5658 316.6232,-496.409 310.9019,-492.3758"/>
<text text-anchor="middle" x="357.0306" y="-307.9961" font-family="Arial" font-size="10.00" fill="#696969"> continue </text>
</g>
<!-- continue&#45;&gt;return&#45;card -->
<g id="edge16" class="edge">
<title>continue&#45;&gt;return&#45;card</title>
<path fill="none" stroke="#000000" d="M316.0981,-85.7935C332.0682,-73.0937 354.7699,-55.0406 372.7317,-40.7568"/>
<polygon fill="#000000" stroke="#000000" points="374.9613,-43.4556 380.6097,-34.492 370.6043,-37.9768 374.9613,-43.4556"/>
<text text-anchor="middle" x="368.7991" y="-57.499" font-family="Arial" font-size="10.00" fill="#696969"> finish </text>
</g>
<!-- withdrawal&#45;amount -->
<g id="node11" class="node">
<title>withdrawal&#45;amount</title>
<ellipse fill="none" stroke="#696969" cx="230.3484" cy="-351.9961" rx="77.0242" ry="18"/>
<text text-anchor="middle" x="230.3484" y="-348.0961" font-family="Helvetica,sans-Serif" font-size="13.00" fill="#696969">withdrawal&#45;amount</text>
</g>
<!-- withdrawal&#45;account&#45;&gt;withdrawal&#45;amount -->
<g id="edge11" class="edge">
<title>withdrawal&#45;account&#45;&gt;withdrawal&#45;amount</title>
<path fill="none" stroke="#000000" d="M229.5654,-417.3771C229.6952,-406.5446 229.8628,-392.5474 230.0096,-380.285"/>
<polygon fill="#000000" stroke="#000000" points="233.5118,-380.12 230.1319,-370.0788 226.5123,-380.0361 233.5118,-380.12"/>
<text text-anchor="middle" x="248.5257" y="-391.4951" font-family="Arial" font-size="10.00" fill="#696969"> provide </text>
</g>
<!-- confirm&#45;withdrawal -->
<g id="node12" class="node">
<title>confirm&#45;withdrawal</title>
<ellipse fill="none" stroke="#696969" cx="230.3484" cy="-268.4971" rx="76.6099" ry="18"/>
<text text-anchor="middle" x="230.3484" y="-264.5971" font-family="Helvetica,sans-Serif" font-size="13.00" fill="#696969">confirm&#45;withdrawal</text>
</g>
<!-- withdrawal&#45;amount&#45;&gt;confirm&#45;withdrawal -->
<g id="edge12" class="edge">
<title>withdrawal&#45;amount&#45;&gt;confirm&#45;withdrawal</title>
<path fill="none" stroke="#000000" d="M230.3484,-333.878C230.3484,-323.0456 230.3484,-309.0484 230.3484,-296.786"/>
<polygon fill="#000000" stroke="#000000" points="233.8485,-296.5797 230.3484,-286.5798 226.8485,-296.5798 233.8485,-296.5797"/>
<text text-anchor="middle" x="249.5257" y="-307.9961" font-family="Arial" font-size="10.00" fill="#696969"> provide </text>
</g>
<!-- dispense&#45;cash -->
<g id="node13" class="node">
<title>dispense&#45;cash</title>
<ellipse fill="none" stroke="#696969" cx="242.3484" cy="-184.998" rx="61.4046" ry="18"/>
<text text-anchor="middle" x="242.3484" y="-181.098" font-family="Helvetica,sans-Serif" font-size="13.00" fill="#696969">dispense&#45;cash</text>
</g>
<!-- confirm&#45;withdrawal&#45;&gt;dispense&#45;cash -->
<g id="edge13" class="edge">
<title>confirm&#45;withdrawal&#45;&gt;dispense&#45;cash</title>
<path fill="none" stroke="#000000" d="M232.9523,-250.379C234.509,-239.5466 236.5206,-225.5494 238.2829,-213.287"/>
<polygon fill="#000000" stroke="#000000" points="241.7915,-213.477 239.7497,-203.0807 234.8627,-212.4811 241.7915,-213.477"/>
<text text-anchor="middle" x="255.5184" y="-224.4971" font-family="Arial" font-size="10.00" fill="#696969"> confirm </text>
</g>
<!-- dispense&#45;cash&#45;&gt;continue -->
<g id="edge14" class="edge">
<title>dispense&#45;cash&#45;&gt;continue</title>
<path fill="none" stroke="#000000" d="M253.8004,-167.2901C261.2965,-155.6991 271.218,-140.3577 279.5946,-127.4052"/>
<polygon fill="#000000" stroke="#000000" points="282.6065,-129.1929 285.0981,-118.8952 276.7286,-125.3915 282.6065,-129.1929"/>
<text text-anchor="middle" x="294.8558" y="-140.998" font-family="Arial" font-size="10.00" fill="#696969"> withdraw </text>
</g>
</g>
</svg>
