<?xml version="1.0" encoding="UTF-8" standalone="no"?>
<!DOCTYPE svg PUBLIC "-//W3C//DTD SVG 1.1//EN"
 "http://www.w3.org/Graphics/SVG/1.1/DTD/svg11.dtd">
<!-- Generated by graphviz version 2.46.1 (20210213.1702)
 -->
<!-- Title: door Pages: 1 -->
<svg width="202pt" height="128pt"
 viewBox="0.00 0.00 202.19 127.62" xmlns="http://www.w3.org/2000/svg" xmlns:xlink="http://www.w3.org/1999/xlink">
<g id="graph0" class="graph" transform="scale(1 1) rotate(0) translate(4 123.62)">
<title>door</title>
<polygon fill="white" stroke="transparent" points="-4,4 -4,-123.62 198.19,-123.62 198.19,4 -4,4"/>
<!-- closed -->
<g id="node1" class="node">
<title>closed</title>
<ellipse fill="none" stroke="black" cx="33.15" cy="-63.62" rx="33.29" ry="18"/>
<text text-anchor="middle" x="33.15" y="-59.92" font-family="Times,serif" font-size="14.00">closed</text>
</g>
<!-- open -->
<g id="node2" class="node">
<title>open</title>
<ellipse fill="none" stroke="black" cx="166.24" cy="-63.62" rx="27.9" ry="18"/>
<text text-anchor="middle" x="166.24" y="-59.92" font-family="Times,serif" font-size="14.00">open</text>
</g>
<!-- closed&#45;&gt;open -->
<g id="edge1" class="edge">
<title>closed:n&#45;&gt;open:n</title>
<path fill="none" stroke="blue" d="M33.15,-82.62C33.15,-108.85 137.8,-111.82 161.5,-91.54"/>
<polygon fill="blue" stroke="blue" points="164.64,-93.1 166.24,-82.62 158.46,-89.81 164.64,-93.1"/>
<text text-anchor="middle" x="102.29" y="-108.42" font-family="Times,serif" font-size="14.00"> open </text>
</g>
<!-- open&#45;&gt;closed -->
<g id="edge2" class="edge">
<title>open:s&#45;&gt;closed:s</title>
<path fill="none" stroke="red" d="M166.24,-44.62C166.24,10.95 48.78,14.31 34.55,-34.53"/>
<polygon fill="red" stroke="red" points="31.06,-34.24 33.15,-44.62 37.99,-35.2 31.06,-34.24"/>
<text text-anchor="middle" x="102.29" y="-6.42" font-family="Times,serif" font-size="14.00"> close </text>
</g>
</g>
</svg>
