<?xml version="1.0" encoding="UTF-8" standalone="no"?>
<!DOCTYPE svg PUBLIC "-//W3C//DTD SVG 1.1//EN"
 "http://www.w3.org/Graphics/SVG/1.1/DTD/svg11.dtd">
<!-- Generated by graphviz version 2.40.1 (20161225.0304)
 -->
<!-- Title: door Pages: 1 -->
<svg width="194pt" height="118pt"
 viewBox="0.00 0.00 194.17 117.59" xmlns="http://www.w3.org/2000/svg" xmlns:xlink="http://www.w3.org/1999/xlink">
<g id="graph0" class="graph" transform="scale(1 1) rotate(0) translate(4 113.5909)">
<title>door</title>
<polygon fill="#ffffff" stroke="transparent" points="-4,4 -4,-113.5909 190.1696,-113.5909 190.1696,4 -4,4"/>
<!-- closed -->
<g id="node1" class="node">
<title>closed</title>
<ellipse fill="none" stroke="#696969" cx="32.982" cy="-60.0919" rx="32.964" ry="18"/>
<text text-anchor="middle" x="32.982" y="-56.1919" font-family="Helvetica,sans-Serif" font-size="13.00" fill="#696969">closed</text>
</g>
<!-- open -->
<g id="node2" class="node">
<title>open</title>
<ellipse fill="none" stroke="#696969" cx="158.5175" cy="-60.0919" rx="27.8051" ry="18"/>
<text text-anchor="middle" x="158.5175" y="-56.1919" font-family="Helvetica,sans-Serif" font-size="13.00" fill="#696969">open</text>
</g>
<!-- closed&#45;&gt;open -->
<g id="edge1" class="edge">
<title>closed:n&#45;&gt;open:n</title>
<path fill="none" stroke="#0000ff" d="M32.982,-78.0919C32.982,-102.6105 129.9552,-105.5796 153.4409,-86.999"/>
<polygon fill="#0000ff" stroke="#0000ff" points="156.6065,-88.513 158.5175,-78.0919 150.525,-85.0467 156.6065,-88.513"/>
<text text-anchor="middle" x="98.4147" y="-101.5909" font-family="Arial" font-size="10.00" fill="#696969"> open </text>
</g>
<!-- open&#45;&gt;closed -->
<g id="edge2" class="edge">
<title>open:s&#45;&gt;closed:s</title>
<path fill="none" stroke="#ff0000" d="M158.5175,-42.0919C158.5175,10.1056 48.6428,13.4699 34.4793,-31.999"/>
<polygon fill="#ff0000" stroke="#ff0000" points="30.9874,-31.6865 32.982,-42.0919 37.9116,-32.7138 30.9874,-31.6865"/>
<text text-anchor="middle" x="98.4147" y="-5.5909" font-family="Arial" font-size="10.00" fill="#696969"> close </text>
</g>
</g>
</svg>
