<?xml version="1.0" encoding="UTF-8" standalone="no"?>
<!DOCTYPE svg PUBLIC "-//W3C//DTD SVG 1.1//EN"
 "http://www.w3.org/Graphics/SVG/1.1/DTD/svg11.dtd">
<!-- Generated by graphviz version 2.38.0 (20140413.2041)
 -->
<!-- Title: door Pages: 1 -->
<svg width="202pt" height="128pt"
 viewBox="0.00 0.00 202.19 127.62" xmlns="http://www.w3.org/2000/svg" xmlns:xlink="http://www.w3.org/1999/xlink">
<g id="graph0" class="graph" transform="scale(1 1) rotate(0) translate(4 123.623)">
<title>door</title>
<polygon fill="white" stroke="none" points="-4,4 -4,-123.623 198.189,-123.623 198.189,4 -4,4"/>
<!-- closed -->
<g id="node1" class="node"><title>closed</title>
<ellipse fill="none" stroke="black" cx="33.1471" cy="-63.6228" rx="33.2948" ry="18"/>
<text text-anchor="middle" x="33.1471" y="-59.9228" font-family="Times,serif" font-size="14.00">closed</text>
</g>
<!-- open -->
<g id="node2" class="node"><title>open</title>
<ellipse fill="none" stroke="black" cx="166.242" cy="-63.6228" rx="27.8951" ry="18"/>
<text text-anchor="middle" x="166.242" y="-59.9228" font-family="Times,serif" font-size="14.00">open</text>
</g>
<!-- closed&#45;&gt;open -->
<g id="edge1" class="edge"><title>closed:n&#45;&gt;open:n</title>
<path fill="none" stroke="blue" d="M33.1471,-82.6228C33.1471,-108.849 137.795,-111.82 161.505,-91.5356"/>
<polygon fill="blue" stroke="blue" points="164.639,-93.0958 166.242,-82.6228 158.458,-89.8106 164.639,-93.0958"/>
<text text-anchor="middle" x="102.294" y="-108.423" font-family="Times,serif" font-size="14.00"> open </text>
</g>
<!-- open&#45;&gt;closed -->
<g id="edge2" class="edge"><title>open:s&#45;&gt;closed:s</title>
<path fill="none" stroke="red" d="M166.242,-44.6228C166.242,10.9488 48.7761,14.3135 34.5517,-34.5287"/>
<polygon fill="red" stroke="red" points="31.0588,-34.2358 33.1471,-44.6228 37.992,-35.2007 31.0588,-34.2358"/>
<text text-anchor="middle" x="102.294" y="-6.42281" font-family="Times,serif" font-size="14.00"> close </text>
</g>
</g>
</svg>
