<?xml version="1.0" encoding="UTF-8" standalone="no"?>
<!DOCTYPE svg PUBLIC "-//W3C//DTD SVG 1.1//EN"
 "http://www.w3.org/Graphics/SVG/1.1/DTD/svg11.dtd">
<!-- Generated by graphviz version 2.46.1 (20210213.1702)
 -->
<!-- Title: matter Pages: 1 -->
<svg width="351pt" height="90pt"
 viewBox="0.00 0.00 351.29 90.04" xmlns="http://www.w3.org/2000/svg" xmlns:xlink="http://www.w3.org/1999/xlink">
<g id="graph0" class="graph" transform="scale(1 1) rotate(0) translate(4 86.04)">
<title>matter</title>
<polygon fill="white" stroke="transparent" points="-4,4 -4,-86.04 347.29,-86.04 347.29,4 -4,4"/>
<!-- solid -->
<g id="node1" class="node">
<title>solid</title>
<ellipse fill="none" stroke="black" cx="27.95" cy="-51.04" rx="27.9" ry="18"/>
<text text-anchor="middle" x="27.95" y="-47.34" font-family="Times,serif" font-size="14.00">solid</text>
</g>
<!-- liquid -->
<g id="node2" class="node">
<title>liquid</title>
<ellipse fill="none" stroke="black" cx="164.09" cy="-35.04" rx="31.4" ry="18"/>
<text text-anchor="middle" x="164.09" y="-31.34" font-family="Times,serif" font-size="14.00">liquid</text>
</g>
<!-- solid&#45;&gt;liquid -->
<g id="edge1" class="edge">
<title>solid&#45;&gt;liquid:nw</title>
<path fill="none" stroke="black" d="M52.59,-59.68C76.73,-66.97 114.11,-73.86 139.12,-57.51"/>
<polygon fill="black" stroke="black" points="141.53,-60.06 147.09,-51.04 137.12,-54.63 141.53,-60.06"/>
<text text-anchor="middle" x="94.4" y="-70.84" font-family="Times,serif" font-size="14.00"> melt </text>
</g>
<!-- liquid&#45;&gt;solid -->
<g id="edge2" class="edge">
<title>liquid&#45;&gt;solid:se</title>
<path fill="none" stroke="black" d="M137,-25.68C112.87,-18.69 77.17,-12.78 52.98,-28.53"/>
<polygon fill="black" stroke="black" points="50.52,-26.03 44.95,-35.04 54.92,-31.47 50.52,-26.03"/>
<text text-anchor="middle" x="94.4" y="-23.84" font-family="Times,serif" font-size="14.00"> freeze </text>
</g>
<!-- gas -->
<g id="node3" class="node">
<title>gas</title>
<ellipse fill="none" stroke="black" cx="316.29" cy="-19.04" rx="27" ry="18"/>
<text text-anchor="middle" x="316.29" y="-15.34" font-family="Times,serif" font-size="14.00">gas</text>
</g>
<!-- liquid&#45;&gt;gas -->
<g id="edge3" class="edge">
<title>liquid&#45;&gt;gas:nw</title>
<path fill="none" stroke="black" d="M191.06,-44.33C219.08,-52.66 263.56,-60.74 292.55,-40.52"/>
<polygon fill="black" stroke="black" points="294.87,-43.15 300.29,-34.04 290.37,-37.78 294.87,-43.15"/>
<text text-anchor="middle" x="242.29" y="-56.84" font-family="Times,serif" font-size="14.00"> vaporize </text>
</g>
<!-- gas&#45;&gt;liquid -->
<g id="edge4" class="edge">
<title>gas&#45;&gt;liquid:se</title>
<path fill="none" stroke="black" d="M292.4,-10.47C264.93,-1.69 218.84,8.03 189.04,-12.44"/>
<polygon fill="black" stroke="black" points="186.55,-9.96 181.09,-19.04 191.02,-15.34 186.55,-9.96"/>
<text text-anchor="middle" x="242.29" y="-8.84" font-family="Times,serif" font-size="14.00"> condense </text>
</g>
</g>
</svg>
