<?xml version="1.0" encoding="UTF-8" standalone="no"?>
<!DOCTYPE svg PUBLIC "-//W3C//DTD SVG 1.1//EN"
 "http://www.w3.org/Graphics/SVG/1.1/DTD/svg11.dtd">
<!-- Generated by graphviz version 2.40.1 (20161225.0304)
 -->
<!-- Title: matter Pages: 1 -->
<svg width="327pt" height="82pt"
 viewBox="0.00 0.00 327.35 82.50" xmlns="http://www.w3.org/2000/svg" xmlns:xlink="http://www.w3.org/1999/xlink">
<g id="graph0" class="graph" transform="scale(1 1) rotate(0) translate(4 78.499)">
<title>matter</title>
<polygon fill="#ffffff" stroke="transparent" points="-4,4 -4,-78.499 323.3458,-78.499 323.3458,4 -4,4"/>
<!-- solid -->
<g id="node1" class="node">
<title>solid</title>
<ellipse fill="none" stroke="#696969" cx="27" cy="-48" rx="27" ry="18"/>
<text text-anchor="middle" x="27" y="-44.1" font-family="Helvetica,sans-Serif" font-size="13.00" fill="#696969">solid</text>
</g>
<!-- liquid -->
<g id="node2" class="node">
<title>liquid</title>
<ellipse fill="none" stroke="#696969" cx="151.8848" cy="-33" rx="28.5705" ry="18"/>
<text text-anchor="middle" x="151.8848" y="-29.1" font-family="Helvetica,sans-Serif" font-size="13.00" fill="#696969">liquid</text>
</g>
<!-- solid&#45;&gt;liquid -->
<g id="edge1" class="edge">
<title>solid&#45;&gt;liquid:nw</title>
<path fill="none" stroke="#000000" d="M50.8032,-56.5716C73.1436,-63.0993 106.423,-68.7487 129.0645,-54.2775"/>
<polygon fill="#000000" stroke="#000000" points="131.2774,-56.9893 136.8848,-48 126.8955,-51.5304 131.2774,-56.9893"/>
<text text-anchor="middle" x="88.6748" y="-66.499" font-family="Arial" font-size="10.00" fill="#696969"> melt </text>
</g>
<!-- liquid&#45;&gt;solid -->
<g id="edge2" class="edge">
<title>liquid&#45;&gt;solid:se</title>
<path fill="none" stroke="#000000" d="M126.6915,-24.0275C104.4256,-17.6905 72.1329,-12.5701 49.9604,-26.6334"/>
<polygon fill="#000000" stroke="#000000" points="47.6234,-24.0207 42,-33 51.9956,-29.4873 47.6234,-24.0207"/>
<text text-anchor="middle" x="88.6748" y="-22.499" font-family="Arial" font-size="10.00" fill="#696969"> freeze </text>
</g>
<!-- gas -->
<g id="node3" class="node">
<title>gas</title>
<ellipse fill="none" stroke="#696969" cx="292.3458" cy="-18" rx="27" ry="18"/>
<text text-anchor="middle" x="292.3458" y="-14.1" font-family="Helvetica,sans-Serif" font-size="13.00" fill="#696969">gas</text>
</g>
<!-- liquid&#45;&gt;gas -->
<g id="edge3" class="edge">
<title>liquid&#45;&gt;gas:nw</title>
<path fill="none" stroke="#000000" d="M176.7408,-42.0955C202.5787,-49.9302 242.8971,-57.4086 269.5456,-39.426"/>
<polygon fill="#000000" stroke="#000000" points="271.8531,-42.0598 277.3458,-33 267.4022,-36.6571 271.8531,-42.0598"/>
<text text-anchor="middle" x="222.8829" y="-53.499" font-family="Arial" font-size="10.00" fill="#696969"> vaporize </text>
</g>
<!-- gas&#45;&gt;liquid -->
<g id="edge4" class="edge">
<title>gas&#45;&gt;liquid:se</title>
<path fill="none" stroke="#000000" d="M268.4975,-9.2124C242.7417,-1.2797 201.782,6.6249 174.7833,-11.5079"/>
<polygon fill="#000000" stroke="#000000" points="172.3877,-8.9463 166.8848,-18 176.8326,-14.354 172.3877,-8.9463"/>
<text text-anchor="middle" x="222.8829" y="-7.499" font-family="Arial" font-size="10.00" fill="#696969"> condense </text>
</g>
</g>
</svg>
