<?xml version="1.0" encoding="UTF-8" standalone="no"?>
<!DOCTYPE svg PUBLIC "-//W3C//DTD SVG 1.1//EN"
 "http://www.w3.org/Graphics/SVG/1.1/DTD/svg11.dtd">
<!-- Generated by graphviz version 2.38.0 (20140413.2041)
 -->
<!-- Title: matter Pages: 1 -->
<svg width="351pt" height="90pt"
 viewBox="0.00 0.00 351.29 90.04" xmlns="http://www.w3.org/2000/svg" xmlns:xlink="http://www.w3.org/1999/xlink">
<g id="graph0" class="graph" transform="scale(1 1) rotate(0) translate(4 86.0441)">
<title>matter</title>
<polygon fill="white" stroke="none" points="-4,4 -4,-86.0441 347.29,-86.0441 347.29,4 -4,4"/>
<!-- solid -->
<g id="node1" class="node"><title>solid</title>
<ellipse fill="none" stroke="black" cx="27.9475" cy="-51.0441" rx="27.8951" ry="18"/>
<text text-anchor="middle" x="27.9475" y="-47.3441" font-family="Times,serif" font-size="14.00">solid</text>
</g>
<!-- liquid -->
<g id="node2" class="node"><title>liquid</title>
<ellipse fill="none" stroke="black" cx="164.092" cy="-35.0441" rx="31.3957" ry="18"/>
<text text-anchor="middle" x="164.092" y="-31.3441" font-family="Times,serif" font-size="14.00">liquid</text>
</g>
<!-- solid&#45;&gt;liquid -->
<g id="edge1" class="edge"><title>solid&#45;&gt;liquid:nw</title>
<path fill="none" stroke="black" d="M52.5935,-59.6817C76.7313,-66.9717 114.107,-73.8583 139.12,-57.5115"/>
<polygon fill="black" stroke="black" points="141.532,-60.0623 147.092,-51.0441 137.121,-54.6262 141.532,-60.0623"/>
<text text-anchor="middle" x="94.395" y="-70.8441" font-family="Times,serif" font-size="14.00"> melt </text>
</g>
<!-- liquid&#45;&gt;solid -->
<g id="edge2" class="edge"><title>liquid&#45;&gt;solid:se</title>
<path fill="none" stroke="black" d="M137.005,-25.6842C112.867,-18.6919 77.1675,-12.7817 52.9836,-28.5348"/>
<polygon fill="black" stroke="black" points="50.5152,-26.0301 44.9475,-35.0441 54.9212,-31.4695 50.5152,-26.0301"/>
<text text-anchor="middle" x="94.395" y="-24.8441" font-family="Times,serif" font-size="14.00"> freeze </text>
</g>
<!-- gas -->
<g id="node3" class="node"><title>gas</title>
<ellipse fill="none" stroke="black" cx="316.29" cy="-19.0441" rx="27" ry="18"/>
<text text-anchor="middle" x="316.29" y="-15.3441" font-family="Times,serif" font-size="14.00">gas</text>
</g>
<!-- liquid&#45;&gt;gas -->
<g id="edge3" class="edge"><title>liquid&#45;&gt;gas:nw</title>
<path fill="none" stroke="black" d="M191.061,-44.3341C219.079,-52.6597 263.564,-60.7422 292.551,-40.5213"/>
<polygon fill="black" stroke="black" points="294.868,-43.1465 300.29,-34.0441 290.375,-37.7787 294.868,-43.1465"/>
<text text-anchor="middle" x="242.29" y="-56.8441" font-family="Times,serif" font-size="14.00"> vaporize </text>
</g>
<!-- gas&#45;&gt;liquid -->
<g id="edge4" class="edge"><title>gas&#45;&gt;liquid:se</title>
<path fill="none" stroke="black" d="M292.403,-10.4674C264.928,-1.68648 218.836,8.03248 189.036,-12.4425"/>
<polygon fill="black" stroke="black" points="186.546,-9.96089 181.092,-19.0441 191.02,-15.3446 186.546,-9.96089"/>
<text text-anchor="middle" x="242.29" y="-8.84407" font-family="Times,serif" font-size="14.00"> condense </text>
</g>
</g>
</svg>
