<?xml version="1.0" encoding="UTF-8" standalone="no"?>
<!DOCTYPE svg PUBLIC "-//W3C//DTD SVG 1.1//EN"
 "http://www.w3.org/Graphics/SVG/1.1/DTD/svg11.dtd">
<!-- Generated by graphviz version 2.40.1 (20161225.0304)
 -->
<!-- Title: Traffic_Light Pages: 1 -->
<svg width="166pt" height="294pt"
 viewBox="0.00 0.00 166.23 294.50" xmlns="http://www.w3.org/2000/svg" xmlns:xlink="http://www.w3.org/1999/xlink">
<g id="graph0" class="graph" transform="scale(1 1) rotate(0) translate(4 290.4971)">
<title>Traffic_Light</title>
<polygon fill="#ffffff" stroke="transparent" points="-4,4 -4,-290.4971 162.2314,-290.4971 162.2314,4 -4,4"/>
<!-- green -->
<g id="node1" class="node">
<title>green</title>
<ellipse fill="#00ff00" stroke="#696969" cx="83" cy="-184.998" rx="30.1352" ry="18"/>
<text text-anchor="middle" x="83" y="-181.098" font-family="Helvetica,sans-Serif" font-size="13.00" fill="#696969">green</text>
</g>
<!-- yellow -->
<g id="node2" class="node">
<title>yellow</title>
<polygon fill="#ffff00" stroke="#696969" points="54,-119.499 0,-119.499 0,-83.499 54,-83.499 54,-119.499"/>
<text text-anchor="middle" x="27" y="-97.599" font-family="Helvetica,sans-Serif" font-size="13.00" fill="#696969">yellow</text>
</g>
<!-- green&#45;&gt;yellow -->
<g id="edge2" class="edge">
<title>green&#45;&gt;yellow</title>
<path fill="none" stroke="#0000ff" d="M54.7433,-178.2215C39.4718,-172.9627 21.9139,-163.9627 12.7686,-148.998 9.089,-142.9771 9.2247,-135.9421 11.1098,-129.1598"/>
<polygon fill="#0000ff" stroke="#0000ff" points="14.4856,-130.1386 14.8828,-119.5512 7.9699,-127.5801 14.4856,-130.1386"/>
<text text-anchor="middle" x="26.6157" y="-140.998" font-family="Arial" font-size="10.00" fill="#696969"> warn </text>
</g>
<!-- red -->
<g id="node3" class="node">
<title>red</title>
<ellipse fill="#ff0000" stroke="#696969" cx="83" cy="-18" rx="27" ry="18"/>
<text text-anchor="middle" x="83" y="-14.1" font-family="Helvetica,sans-Serif" font-size="13.00" fill="#696969">red</text>
</g>
<!-- green&#45;&gt;red -->
<g id="edge3" class="edge">
<title>green&#45;&gt;red</title>
<path fill="none" stroke="#ff0000" d="M87.1724,-167.1519C88.33,-161.3917 89.4262,-154.9555 90,-148.998 94.048,-106.9712 94.048,-96.0269 90,-54 89.74,-51.3005 89.3727,-48.5028 88.9411,-45.7141"/>
<polygon fill="#ff0000" stroke="#ff0000" points="92.3818,-45.0718 87.1724,-35.8462 85.4916,-46.3068 92.3818,-45.0718"/>
<text text-anchor="middle" x="108.7314" y="-99.2485" font-family="Arial" font-size="10.00" fill="#696969"> panic </text>
</g>
<!-- yellow&#45;&gt;green -->
<g id="edge7" class="edge">
<title>yellow&#45;&gt;green</title>
<path fill="none" stroke="#00ff00" d="M39.0908,-119.5271C46.9442,-131.2368 57.2964,-146.6726 65.9766,-159.6153"/>
<polygon fill="#00ff00" stroke="#00ff00" points="63.1907,-161.7451 71.6676,-168.1008 69.0043,-157.8461 63.1907,-161.7451"/>
<text text-anchor="middle" x="72.6157" y="-140.998" font-family="Arial" font-size="10.00" fill="#696969"> clear </text>
</g>
<!-- yellow&#45;&gt;red -->
<g id="edge4" class="edge">
<title>yellow&#45;&gt;red</title>
<path fill="none" stroke="#ff0000" d="M13.3263,-83.063C8.2922,-73.8951 5.0197,-62.9019 10.5371,-54 18.7747,-40.7094 33.5487,-32.1704 47.6175,-26.7636"/>
<polygon fill="#ff0000" stroke="#ff0000" points="48.8268,-30.0491 57.1558,-23.501 46.5612,-23.4259 48.8268,-30.0491"/>
<text text-anchor="middle" x="25.7314" y="-57.499" font-family="Arial" font-size="10.00" fill="#696969"> panic </text>
</g>
<!-- red&#45;&gt;green -->
<g id="edge6" class="edge">
<title>red&#45;&gt;green</title>
<path fill="none" stroke="#00ff00" d="M97.3776,-33.5468C107.8634,-46.0085 121.2104,-64.4981 127,-83.499 131.6635,-98.8043 131.6635,-104.1937 127,-119.499 122.3733,-134.6834 112.9203,-149.5412 103.9581,-161.2571"/>
<polygon fill="#00ff00" stroke="#00ff00" points="101.1202,-159.2014 97.5949,-169.1926 106.5813,-163.5805 101.1202,-159.2014"/>
<text text-anchor="middle" x="144.6157" y="-99.2485" font-family="Arial" font-size="10.00" fill="#696969"> clear </text>
</g>
<!-- red&#45;&gt;yellow -->
<g id="edge5" class="edge">
<title>red&#45;&gt;yellow</title>
<path fill="none" stroke="#0000ff" d="M71.8242,-34.6637C64.1475,-46.11 53.7894,-61.5546 44.9642,-74.7134"/>
<polygon fill="#0000ff" stroke="#0000ff" points="41.8144,-73.1263 39.1512,-83.381 47.628,-77.0253 41.8144,-73.1263"/>
<text text-anchor="middle" x="72.335" y="-57.499" font-family="Arial" font-size="10.00" fill="#696969"> calm </text>
</g>
<!-- none -->
<g id="node4" class="node">
<title>none</title>
<ellipse fill="none" stroke="#696969" cx="83" cy="-268.4971" rx="27.8051" ry="18"/>
<text text-anchor="middle" x="83" y="-264.5971" font-family="Helvetica,sans-Serif" font-size="13.00" fill="#696969">none</text>
</g>
<!-- none&#45;&gt;green -->
<g id="edge1" class="edge">
<title>none&#45;&gt;green</title>
<path fill="none" stroke="#0000ff" d="M83,-250.379C83,-239.5466 83,-225.5494 83,-213.287"/>
<polygon fill="#0000ff" stroke="#0000ff" points="86.5001,-213.0807 83,-203.0807 79.5001,-213.0808 86.5001,-213.0807"/>
<text text-anchor="middle" x="95.5024" y="-224.4971" font-family="Arial" font-size="10.00" fill="#696969"> start </text>
</g>
</g>
</svg>
