<?xml version="1.0" encoding="UTF-8" standalone="no"?>
<!DOCTYPE svg PUBLIC "-//W3C//DTD SVG 1.1//EN"
 "http://www.w3.org/Graphics/SVG/1.1/DTD/svg11.dtd">
<!-- Generated by graphviz version 2.40.1 (20161225.0304)
 -->
<!-- Title: Traffic_Light Pages: 1 -->
<svg width="191pt" height="302pt"
 viewBox="0.00 0.00 191.25 302.00" xmlns="http://www.w3.org/2000/svg" xmlns:xlink="http://www.w3.org/1999/xlink">
<g id="graph0" class="graph" transform="scale(1 1) rotate(0) translate(4 298)">
<title>Traffic_Light</title>
<polygon fill="#ffffff" stroke="transparent" points="-4,4 -4,-298 187.2451,-298 187.2451,4 -4,4"/>
<!-- green -->
<g id="node1" class="node">
<title>green</title>
<ellipse fill="#00ff00" stroke="#000000" cx="87.0518" cy="-190" rx="29.9931" ry="18"/>
<text text-anchor="middle" x="87.0518" y="-185.8" font-family="Times,serif" font-size="14.00" fill="#000000">green</text>
</g>
<!-- yellow -->
<g id="node2" class="node">
<title>yellow</title>
<polygon fill="#ffff00" stroke="#000000" points="54.1554,-122 -.0519,-122 -.0519,-86 54.1554,-86 54.1554,-122"/>
<text text-anchor="middle" x="27.0518" y="-99.8" font-family="Times,serif" font-size="14.00" fill="#000000">yellow</text>
</g>
<!-- green&#45;&gt;yellow -->
<g id="edge2" class="edge">
<title>green&#45;&gt;yellow</title>
<path fill="none" stroke="#0000ff" d="M58.268,-185.3533C39.9378,-180.7429 17.5515,-171.6756 6.0654,-154 1.5433,-147.0411 2.6243,-138.9457 5.9857,-131.3218"/>
<polygon fill="#0000ff" stroke="#0000ff" points="9.1687,-132.8007 10.9935,-122.3642 3.0587,-129.3848 9.1687,-132.8007"/>
<text text-anchor="middle" x="24.5449" y="-142.8" font-family="Times,serif" font-size="14.00" fill="#000000"> warn </text>
</g>
<!-- red -->
<g id="node3" class="node">
<title>red</title>
<ellipse fill="#ff0000" stroke="#000000" cx="87.0518" cy="-18" rx="27" ry="18"/>
<text text-anchor="middle" x="87.0518" y="-13.8" font-family="Times,serif" font-size="14.00" fill="#000000">red</text>
</g>
<!-- green&#45;&gt;red -->
<g id="edge3" class="edge">
<title>green&#45;&gt;red</title>
<path fill="none" stroke="#ff0000" d="M93.6014,-172.2959C95.4201,-166.5434 97.1442,-160.0757 98.0518,-154 104.6175,-110.0432 104.6175,-97.9568 98.0518,-54 97.6405,-51.2469 97.0616,-48.4134 96.3823,-45.6024"/>
<polygon fill="#ff0000" stroke="#ff0000" points="99.6757,-44.3847 93.6014,-35.7041 92.9366,-46.278 99.6757,-44.3847"/>
<text text-anchor="middle" x="121.7104" y="-99.8" font-family="Times,serif" font-size="14.00" fill="#000000"> panic </text>
</g>
<!-- yellow&#45;&gt;green -->
<g id="edge7" class="edge">
<title>yellow&#45;&gt;green</title>
<path fill="none" stroke="#00ff00" d="M39.7098,-122.1431C48.3015,-134.4579 59.7833,-150.9152 69.2877,-164.5382"/>
<polygon fill="#00ff00" stroke="#00ff00" points="66.6054,-166.8105 75.1977,-173.0092 72.3463,-162.8052 66.6054,-166.8105"/>
<text text-anchor="middle" x="78.1484" y="-142.8" font-family="Times,serif" font-size="14.00" fill="#000000"> clear </text>
</g>
<!-- yellow&#45;&gt;red -->
<g id="edge4" class="edge">
<title>yellow&#45;&gt;red</title>
<path fill="none" stroke="#ff0000" d="M9.6436,-85.7447C2.4778,-75.966 -2.789,-63.9249 3.7344,-54 14.1526,-38.1494 33.1948,-29.2455 50.4473,-24.26"/>
<polygon fill="#ff0000" stroke="#ff0000" points="51.488,-27.6069 60.3198,-21.7545 49.7661,-20.822 51.488,-27.6069"/>
<text text-anchor="middle" x="22.7104" y="-56.8" font-family="Times,serif" font-size="14.00" fill="#000000"> panic </text>
</g>
<!-- red&#45;&gt;green -->
<g id="edge6" class="edge">
<title>red&#45;&gt;green</title>
<path fill="none" stroke="#00ff00" d="M104.2144,-32.1516C117.9423,-44.6711 136.1543,-64.2848 144.0518,-86 149.5203,-101.0365 149.5203,-106.9635 144.0518,-122 137.5989,-139.7432 124.2597,-156.0832 112.1071,-168.2968"/>
<polygon fill="#00ff00" stroke="#00ff00" points="109.5563,-165.8938 104.7659,-175.3438 114.4038,-170.9437 109.5563,-165.8938"/>
<text text-anchor="middle" x="166.1484" y="-99.8" font-family="Times,serif" font-size="14.00" fill="#000000"> clear </text>
</g>
<!-- red&#45;&gt;yellow -->
<g id="edge5" class="edge">
<title>red&#45;&gt;yellow</title>
<path fill="none" stroke="#0000ff" d="M75.563,-34.4672C67.0864,-46.6171 55.3728,-63.4064 45.5796,-77.4434"/>
<polygon fill="#0000ff" stroke="#0000ff" points="42.6276,-75.5577 39.7762,-85.7616 48.3685,-79.563 42.6276,-75.5577"/>
<text text-anchor="middle" x="78.1553" y="-56.8" font-family="Times,serif" font-size="14.00" fill="#000000"> calm </text>
</g>
<!-- none -->
<g id="node4" class="node">
<title>none</title>
<ellipse fill="none" stroke="#000000" cx="87.0518" cy="-276" rx="27.0958" ry="18"/>
<text text-anchor="middle" x="87.0518" y="-271.8" font-family="Times,serif" font-size="14.00" fill="#000000">none</text>
</g>
<!-- none&#45;&gt;green -->
<g id="edge1" class="edge">
<title>none&#45;&gt;green</title>
<path fill="none" stroke="#0000ff" d="M87.0518,-257.7616C87.0518,-246.3597 87.0518,-231.4342 87.0518,-218.494"/>
<polygon fill="#0000ff" stroke="#0000ff" points="90.5519,-218.2121 87.0518,-208.2121 83.5519,-218.2121 90.5519,-218.2121"/>
<text text-anchor="middle" x="102.6035" y="-228.8" font-family="Times,serif" font-size="14.00" fill="#000000"> start </text>
</g>
</g>
</svg>
