<?xml version="1.0" encoding="UTF-8" standalone="no"?>
<!DOCTYPE svg PUBLIC "-//W3C//DTD SVG 1.1//EN"
 "http://www.w3.org/Graphics/SVG/1.1/DTD/svg11.dtd">
<!-- Generated by graphviz version 2.40.1 (20161225.0304)
 -->
<!-- Title: fsm Pages: 1 -->
<svg width="74pt" height="127pt"
 viewBox="0.00 0.00 73.96 127.50" xmlns="http://www.w3.org/2000/svg" xmlns:xlink="http://www.w3.org/1999/xlink">
<g id="graph0" class="graph" transform="scale(1 1) rotate(0) translate(4 123.499)">
<title>fsm</title>
<polygon fill="#ffffff" stroke="transparent" points="-4,4 -4,-123.499 69.964,-123.499 69.964,4 -4,4"/>
<!-- closed -->
<g id="node1" class="node">
<title>closed</title>
<ellipse fill="none" stroke="#696969" cx="32.982" cy="-101.499" rx="32.964" ry="18"/>
<text text-anchor="middle" x="32.982" y="-97.599" font-family="Helvetica,sans-Serif" font-size="13.00" fill="#696969">closed</text>
</g>
<!-- open -->
<g id="node2" class="node">
<title>open</title>
<ellipse fill="none" stroke="#696969" cx="32.982" cy="-18" rx="27.8051" ry="18"/>
<text text-anchor="middle" x="32.982" y="-14.1" font-family="Helvetica,sans-Serif" font-size="13.00" fill="#696969">open</text>
</g>
<!-- closed&#45;&gt;open -->
<g id="edge1" class="edge">
<title>closed&#45;&gt;open</title>
<path fill="none" stroke="#000000" d="M19.1379,-84.9618C15.1156,-79.1718 11.2506,-72.3873 9.1793,-65.499 6.8261,-57.6734 8.9524,-49.5755 12.7395,-42.3311"/>
<polygon fill="#000000" stroke="#000000" points="15.8154,-44.016 18.2126,-33.6959 9.9029,-40.2685 15.8154,-44.016"/>
<text text-anchor="middle" x="23.8834" y="-57.499" font-family="Arial" font-size="10.00" fill="#696969"> open </text>
</g>
<!-- open&#45;&gt;closed -->
<g id="edge2" class="edge">
<title>open&#45;&gt;closed</title>
<path fill="none" stroke="#000000" d="M35.4096,-36.2815C36.0555,-41.9494 36.6621,-48.2235 36.982,-54 37.3279,-60.2462 37.1208,-66.9453 36.6571,-73.285"/>
<polygon fill="#000000" stroke="#000000" points="33.1508,-73.185 35.6867,-83.4719 40.1193,-73.8489 33.1508,-73.185"/>
<text text-anchor="middle" x="51.4327" y="-57.499" font-family="Arial" font-size="10.00" fill="#696969"> close </text>
</g>
</g>
</svg>
