<?xml version="1.0" encoding="UTF-8" standalone="no"?>
<!DOCTYPE svg PUBLIC "-//W3C//DTD SVG 1.1//EN"
 "http://www.w3.org/Graphics/SVG/1.1/DTD/svg11.dtd">
<!-- Generated by graphviz version 2.46.1 (20210213.1702)
 -->
<!-- Title: fsm Pages: 1 -->
<svg width="84pt" height="131pt"
 viewBox="0.00 0.00 84.15 131.00" xmlns="http://www.w3.org/2000/svg" xmlns:xlink="http://www.w3.org/1999/xlink">
<g id="graph0" class="graph" transform="scale(1 1) rotate(0) translate(4 127)">
<title>fsm</title>
<polygon fill="white" stroke="transparent" points="-4,4 -4,-127 80.15,-127 80.15,4 -4,4"/>
<!-- closed -->
<g id="node1" class="node">
<title>closed</title>
<ellipse fill="none" stroke="black" cx="33.15" cy="-105" rx="33.29" ry="18"/>
<text text-anchor="middle" x="33.15" y="-101.3" font-family="Times,serif" font-size="14.00">closed</text>
</g>
<!-- open -->
<g id="node2" class="node">
<title>open</title>
<ellipse fill="none" stroke="black" cx="33.15" cy="-18" rx="27.9" ry="18"/>
<text text-anchor="middle" x="33.15" y="-14.3" font-family="Times,serif" font-size="14.00">open</text>
</g>
<!-- closed&#45;&gt;open -->
<g id="edge1" class="edge">
<title>closed&#45;&gt;open</title>
<path fill="none" stroke="black" d="M18.05,-88.94C13.28,-83.19 8.62,-76.26 6.15,-69 2.93,-59.57 6.45,-49.81 11.89,-41.44"/>
<polygon fill="black" stroke="black" points="14.82,-43.37 18.06,-33.29 9.23,-39.15 14.82,-43.37"/>
<text text-anchor="middle" x="23.15" y="-57.8" font-family="Times,serif" font-size="14.00"> open </text>
</g>
<!-- open&#45;&gt;closed -->
<g id="edge2" class="edge">
<title>open&#45;&gt;closed</title>
<path fill="none" stroke="black" d="M37.25,-35.99C38.43,-41.68 39.56,-48.08 40.15,-54 40.89,-61.47 40.35,-69.54 39.3,-76.97"/>
<polygon fill="black" stroke="black" points="35.84,-76.46 37.57,-86.92 42.73,-77.67 35.84,-76.46"/>
<text text-anchor="middle" x="58.15" y="-57.8" font-family="Times,serif" font-size="14.00"> close </text>
</g>
</g>
</svg>
