<?xml version="1.0" encoding="UTF-8" standalone="no"?>
<!DOCTYPE svg PUBLIC "-//W3C//DTD SVG 1.1//EN"
 "http://www.w3.org/Graphics/SVG/1.1/DTD/svg11.dtd">
<!-- Generated by graphviz version 2.38.0 (20140413.2041)
 -->
<!-- Title: fsm Pages: 1 -->
<svg width="84pt" height="131pt"
 viewBox="0.00 0.00 84.15 131.00" xmlns="http://www.w3.org/2000/svg" xmlns:xlink="http://www.w3.org/1999/xlink">
<g id="graph0" class="graph" transform="scale(1 1) rotate(0) translate(4 127)">
<title>fsm</title>
<polygon fill="white" stroke="none" points="-4,4 -4,-127 80.1471,-127 80.1471,4 -4,4"/>
<!-- closed -->
<g id="node1" class="node"><title>closed</title>
<ellipse fill="none" stroke="black" cx="33.1471" cy="-105" rx="33.2948" ry="18"/>
<text text-anchor="middle" x="33.1471" y="-101.3" font-family="Times,serif" font-size="14.00">closed</text>
</g>
<!-- open -->
<g id="node2" class="node"><title>open</title>
<ellipse fill="none" stroke="black" cx="33.1471" cy="-18" rx="27.8951" ry="18"/>
<text text-anchor="middle" x="33.1471" y="-14.3" font-family="Times,serif" font-size="14.00">open</text>
</g>
<!-- closed&#45;&gt;open -->
<g id="edge1" class="edge"><title>closed&#45;&gt;open</title>
<path fill="none" stroke="black" d="M18.0465,-88.9414C13.2848,-83.1934 8.62325,-76.2639 6.14706,-69 2.93408,-59.5748 6.45226,-49.8089 11.8931,-41.4363"/>
<polygon fill="black" stroke="black" points="14.8153,-43.3748 18.0574,-33.2882 9.23283,-39.1515 14.8153,-43.3748"/>
<text text-anchor="middle" x="23.1471" y="-57.8" font-family="Times,serif" font-size="14.00"> open </text>
</g>
<!-- open&#45;&gt;closed -->
<g id="edge2" class="edge"><title>open&#45;&gt;closed</title>
<path fill="none" stroke="black" d="M37.2453,-35.9884C38.43,-41.6782 39.5609,-48.0801 40.1471,-54 40.8867,-61.4701 40.3481,-69.5378 39.3037,-76.9673"/>
<polygon fill="black" stroke="black" points="35.8387,-76.4643 37.571,-86.9165 42.7349,-77.6654 35.8387,-76.4643"/>
<text text-anchor="middle" x="58.1471" y="-57.8" font-family="Times,serif" font-size="14.00"> close </text>
</g>
</g>
</svg>
