<?xml version="1.0" encoding="UTF-8" standalone="no"?>
<!DOCTYPE svg PUBLIC "-//W3C//DTD SVG 1.1//EN"
 "http://www.w3.org/Graphics/SVG/1.1/DTD/svg11.dtd">
<!-- Generated by graphviz version 2.46.1 (20210213.1702)
 -->
<!-- Title: wizard Pages: 1 -->
<svg width="430pt" height="198pt"
 viewBox="0.00 0.00 430.00 197.83" xmlns="http://www.w3.org/2000/svg" xmlns:xlink="http://www.w3.org/1999/xlink">
<g id="graph0" class="graph" transform="scale(1 1) rotate(0) translate(4 193.83)">
<title>wizard</title>
<polygon fill="white" stroke="transparent" points="-4,4 -4,-193.83 426,-193.83 426,4 -4,4"/>
<!-- A -->
<g id="node1" class="node">
<title>A</title>
<ellipse fill="none" stroke="black" cx="27" cy="-146.83" rx="27" ry="18"/>
<text text-anchor="middle" x="27" y="-143.13" font-family="Times,serif" font-size="14.00">A</text>
</g>
<!-- B -->
<g id="node2" class="node">
<title>B</title>
<ellipse fill="none" stroke="black" cx="151" cy="-166.83" rx="27" ry="18"/>
<text text-anchor="middle" x="151" y="-163.13" font-family="Times,serif" font-size="14.00">B</text>
</g>
<!-- A&#45;&gt;B -->
<g id="edge1" class="edge">
<title>A:ne&#45;&gt;B:w</title>
<path fill="none" stroke="black" d="M41,-161.83C41.99,-162.83 40.87,-164 42,-164.83 68.45,-184.39 84.25,-170.28 113.87,-167.34"/>
<polygon fill="black" stroke="black" points="114.19,-170.83 124,-166.83 113.84,-163.84 114.19,-170.83"/>
<text text-anchor="middle" x="89" y="-178.63" font-family="Times,serif" font-size="14.00"> step </text>
</g>
<!-- B&#45;&gt;A -->
<g id="edge4" class="edge">
<title>B:s&#45;&gt;A:se</title>
<path fill="none" stroke="black" d="M151,-147.83C151,-137.6 80.22,-127.14 52.95,-129.27"/>
<polygon fill="black" stroke="black" points="51.81,-125.95 43,-131.83 53.56,-132.73 51.81,-125.95"/>
<text text-anchor="middle" x="89" y="-135.63" font-family="Times,serif" font-size="14.00"> reset </text>
</g>
<!-- C -->
<g id="node3" class="node">
<title>C</title>
<ellipse fill="none" stroke="black" cx="275" cy="-133.83" rx="27" ry="18"/>
<text text-anchor="middle" x="275" y="-130.13" font-family="Times,serif" font-size="14.00">C</text>
</g>
<!-- B&#45;&gt;C -->
<g id="edge2" class="edge">
<title>B:e&#45;&gt;C:w</title>
<path fill="none" stroke="black" d="M178,-166.83C208.63,-166.83 212.94,-140.66 237.82,-134.93"/>
<polygon fill="black" stroke="black" points="238.43,-138.39 248,-133.83 237.68,-131.43 238.43,-138.39"/>
<text text-anchor="middle" x="213" y="-165.63" font-family="Times,serif" font-size="14.00"> step </text>
</g>
<!-- C&#45;&gt;A -->
<g id="edge5" class="edge">
<title>C:s&#45;&gt;A:se</title>
<path fill="none" stroke="black" d="M275,-114.83C275,-93 100.22,-99.32 51.4,-125.86"/>
<polygon fill="black" stroke="black" points="49.12,-123.19 43,-131.83 53.18,-128.89 49.12,-123.19"/>
<text text-anchor="middle" x="151" y="-111.63" font-family="Times,serif" font-size="14.00"> reset </text>
</g>
<!-- D -->
<g id="node4" class="node">
<title>D</title>
<ellipse fill="none" stroke="black" cx="395" cy="-102.83" rx="27" ry="18"/>
<text text-anchor="middle" x="395" y="-99.13" font-family="Times,serif" font-size="14.00">D</text>
</g>
<!-- C&#45;&gt;D -->
<g id="edge3" class="edge">
<title>C:e&#45;&gt;D:w</title>
<path fill="none" stroke="black" d="M302,-133.83C330.61,-133.83 334.89,-109.67 357.79,-104.01"/>
<polygon fill="black" stroke="black" points="358.47,-107.46 368,-102.83 357.66,-100.5 358.47,-107.46"/>
<text text-anchor="middle" x="335" y="-132.63" font-family="Times,serif" font-size="14.00"> step </text>
</g>
<!-- D&#45;&gt;A -->
<g id="edge6" class="edge">
<title>D:s&#45;&gt;A:se</title>
<path fill="none" stroke="black" d="M395,-83.83C395,70.67 164.86,-16.25 50.37,-124.66"/>
<polygon fill="black" stroke="black" points="47.73,-122.35 43,-131.83 52.61,-127.37 47.73,-122.35"/>
<text text-anchor="middle" x="213" y="-32.63" font-family="Times,serif" font-size="14.00"> reset </text>
</g>
</g>
</svg>
