<?xml version="1.0" encoding="UTF-8" standalone="no"?>
<!DOCTYPE svg PUBLIC "-//W3C//DTD SVG 1.1//EN"
 "http://www.w3.org/Graphics/SVG/1.1/DTD/svg11.dtd">
<!-- Generated by graphviz version 2.38.0 (20140413.2041)
 -->
<!-- Title: wizard Pages: 1 -->
<svg width="430pt" height="198pt"
 viewBox="0.00 0.00 430.00 197.83" xmlns="http://www.w3.org/2000/svg" xmlns:xlink="http://www.w3.org/1999/xlink">
<g id="graph0" class="graph" transform="scale(1 1) rotate(0) translate(4 193.834)">
<title>wizard</title>
<polygon fill="white" stroke="none" points="-4,4 -4,-193.834 426,-193.834 426,4 -4,4"/>
<!-- A -->
<g id="node1" class="node"><title>A</title>
<ellipse fill="none" stroke="black" cx="27" cy="-146.834" rx="27" ry="18"/>
<text text-anchor="middle" x="27" y="-143.134" font-family="Times,serif" font-size="14.00">A</text>
</g>
<!-- B -->
<g id="node2" class="node"><title>B</title>
<ellipse fill="none" stroke="black" cx="151" cy="-166.834" rx="27" ry="18"/>
<text text-anchor="middle" x="151" y="-163.134" font-family="Times,serif" font-size="14.00">B</text>
</g>
<!-- A&#45;&gt;B -->
<g id="edge1" class="edge"><title>A:ne&#45;&gt;B:w</title>
<path fill="none" stroke="black" d="M41,-161.834C41.9938,-162.828 40.8699,-163.998 42,-164.834 68.4495,-184.392 84.2495,-170.282 113.867,-167.34"/>
<polygon fill="black" stroke="black" points="114.187,-170.829 124,-166.834 113.838,-163.837 114.187,-170.829"/>
<text text-anchor="middle" x="89" y="-178.634" font-family="Times,serif" font-size="14.00"> step </text>
</g>
<!-- B&#45;&gt;A -->
<g id="edge4" class="edge"><title>B:s&#45;&gt;A:se</title>
<path fill="none" stroke="black" d="M151,-147.834C151,-137.598 80.22,-127.138 52.9487,-129.272"/>
<polygon fill="black" stroke="black" points="51.811,-125.95 43,-131.834 53.557,-132.729 51.811,-125.95"/>
<text text-anchor="middle" x="89" y="-135.634" font-family="Times,serif" font-size="14.00"> reset </text>
</g>
<!-- C -->
<g id="node3" class="node"><title>C</title>
<ellipse fill="none" stroke="black" cx="275" cy="-133.834" rx="27" ry="18"/>
<text text-anchor="middle" x="275" y="-130.134" font-family="Times,serif" font-size="14.00">C</text>
</g>
<!-- B&#45;&gt;C -->
<g id="edge2" class="edge"><title>B:e&#45;&gt;C:w</title>
<path fill="none" stroke="black" d="M178,-166.834C208.633,-166.834 212.943,-140.658 237.818,-134.932"/>
<polygon fill="black" stroke="black" points="238.433,-138.386 248,-133.834 237.682,-131.426 238.433,-138.386"/>
<text text-anchor="middle" x="213" y="-165.634" font-family="Times,serif" font-size="14.00"> step </text>
</g>
<!-- C&#45;&gt;A -->
<g id="edge5" class="edge"><title>C:s&#45;&gt;A:se</title>
<path fill="none" stroke="black" d="M275,-114.834C275,-93.0001 100.223,-99.3173 51.3987,-125.865"/>
<polygon fill="black" stroke="black" points="49.1234,-123.188 43,-131.834 53.1787,-128.894 49.1234,-123.188"/>
<text text-anchor="middle" x="151" y="-111.634" font-family="Times,serif" font-size="14.00"> reset </text>
</g>
<!-- D -->
<g id="node4" class="node"><title>D</title>
<ellipse fill="none" stroke="black" cx="395" cy="-102.834" rx="27" ry="18"/>
<text text-anchor="middle" x="395" y="-99.134" font-family="Times,serif" font-size="14.00">D</text>
</g>
<!-- C&#45;&gt;D -->
<g id="edge3" class="edge"><title>C:e&#45;&gt;D:w</title>
<path fill="none" stroke="black" d="M302,-133.834C330.61,-133.834 334.886,-109.674 357.792,-104.011"/>
<polygon fill="black" stroke="black" points="358.467,-107.457 368,-102.834 357.665,-100.503 358.467,-107.457"/>
<text text-anchor="middle" x="335" y="-132.634" font-family="Times,serif" font-size="14.00"> step </text>
</g>
<!-- D&#45;&gt;A -->
<g id="edge6" class="edge"><title>D:s&#45;&gt;A:se</title>
<path fill="none" stroke="black" d="M395,-83.834C395,70.6661 164.863,-16.254 50.3705,-124.664"/>
<polygon fill="black" stroke="black" points="47.7277,-122.352 43,-131.834 52.6086,-127.37 47.7277,-122.352"/>
<text text-anchor="middle" x="213" y="-32.634" font-family="Times,serif" font-size="14.00"> reset </text>
</g>
</g>
</svg>
