<?xml version="1.0" encoding="UTF-8" standalone="no"?>
<!DOCTYPE svg PUBLIC "-//W3C//DTD SVG 1.1//EN"
 "http://www.w3.org/Graphics/SVG/1.1/DTD/svg11.dtd">
<!-- Generated by graphviz version 2.40.1 (20161225.0304)
 -->
<!-- Title: wizard Pages: 1 -->
<svg width="412pt" height="143pt"
 viewBox="0.00 0.00 412.03 143.37" xmlns="http://www.w3.org/2000/svg" xmlns:xlink="http://www.w3.org/1999/xlink">
<g id="graph0" class="graph" transform="scale(1 1) rotate(0) translate(4 139.3705)">
<title>wizard</title>
<polygon fill="#ffffff" stroke="transparent" points="-4,4 -4,-139.3705 408.0342,-139.3705 408.0342,4 -4,4"/>
<!-- A -->
<g id="node1" class="node">
<title>A</title>
<ellipse fill="none" stroke="#696969" cx="27" cy="-95.8714" rx="27" ry="18"/>
<text text-anchor="middle" x="27" y="-91.9714" font-family="Helvetica,sans-Serif" font-size="13.00" fill="#696969">A</text>
</g>
<!-- B -->
<g id="node2" class="node">
<title>B</title>
<ellipse fill="none" stroke="#696969" cx="144.7881" cy="-115.8714" rx="27" ry="18"/>
<text text-anchor="middle" x="144.7881" y="-111.9714" font-family="Helvetica,sans-Serif" font-size="13.00" fill="#696969">B</text>
</g>
<!-- A&#45;&gt;B -->
<g id="edge1" class="edge">
<title>A:ne&#45;&gt;B:w</title>
<path fill="none" stroke="#000000" d="M42,-110.8714C42,-110.8714 42,-113.8714 42,-113.8714 63.0303,-135.464 80.1181,-120.0265 107.6075,-116.5299"/>
<polygon fill="#000000" stroke="#000000" points="108.0349,-120.0097 117.7881,-115.8714 107.583,-113.0243 108.0349,-120.0097"/>
<text text-anchor="middle" x="85.894" y="-127.3705" font-family="Arial" font-size="10.00" fill="#696969"> step </text>
</g>
<!-- B&#45;&gt;A -->
<g id="edge4" class="edge">
<title>B:s&#45;&gt;A:se</title>
<path fill="none" stroke="#000000" d="M144.7881,-97.8714C144.7881,-88.1494 78.0613,-76.993 51.839,-78.5178"/>
<polygon fill="#000000" stroke="#000000" points="50.9113,-75.1409 42,-80.8714 52.5399,-81.9488 50.9113,-75.1409"/>
<text text-anchor="middle" x="85.894" y="-85.3705" font-family="Arial" font-size="10.00" fill="#696969"> reset </text>
</g>
<!-- C -->
<g id="node3" class="node">
<title>C</title>
<ellipse fill="none" stroke="#696969" cx="262.5762" cy="-82.8714" rx="27" ry="18"/>
<text text-anchor="middle" x="262.5762" y="-78.9714" font-family="Helvetica,sans-Serif" font-size="13.00" fill="#696969">C</text>
</g>
<!-- B&#45;&gt;C -->
<g id="edge2" class="edge">
<title>B:e&#45;&gt;C:w</title>
<path fill="none" stroke="#000000" d="M171.7881,-115.8714C199.9669,-115.8714 203.2296,-90.1526 225.5687,-84.1248"/>
<polygon fill="#000000" stroke="#000000" points="226.0887,-87.5871 235.5762,-82.8714 225.2187,-80.6413 226.0887,-87.5871"/>
<text text-anchor="middle" x="203.6821" y="-114.3705" font-family="Arial" font-size="10.00" fill="#696969"> step </text>
</g>
<!-- C&#45;&gt;A -->
<g id="edge5" class="edge">
<title>C:s&#45;&gt;A:se</title>
<path fill="none" stroke="#000000" d="M262.5762,-64.8714C262.5762,-18.7013 98.5723,-42.7312 49.8989,-74.6238"/>
<polygon fill="#000000" stroke="#000000" points="47.672,-71.9227 42,-80.8714 52.0145,-77.413 47.672,-71.9227"/>
<text text-anchor="middle" x="144.7881" y="-53.3705" font-family="Arial" font-size="10.00" fill="#696969"> reset </text>
</g>
<!-- D -->
<g id="node4" class="node">
<title>D</title>
<ellipse fill="none" stroke="#696969" cx="377.0342" cy="-51.8714" rx="27" ry="18"/>
<text text-anchor="middle" x="377.0342" y="-47.9714" font-family="Helvetica,sans-Serif" font-size="13.00" fill="#696969">D</text>
</g>
<!-- C&#45;&gt;D -->
<g id="edge3" class="edge">
<title>C:e&#45;&gt;D:w</title>
<path fill="none" stroke="#000000" d="M289.5762,-82.8714C315.9982,-82.8714 319.3506,-59.1371 340.0052,-53.2035"/>
<polygon fill="#000000" stroke="#000000" points="340.5821,-56.6577 350.0342,-51.8714 339.6604,-49.7186 340.5821,-56.6577"/>
<text text-anchor="middle" x="319.8052" y="-80.3705" font-family="Arial" font-size="10.00" fill="#696969"> step </text>
</g>
<!-- D&#45;&gt;A -->
<g id="edge6" class="edge">
<title>D:s&#45;&gt;A:se</title>
<path fill="none" stroke="#000000" d="M377.0342,-33.8714C377.0342,37.1244 288.5406,-26.4842 217.5762,-24.3724 151.8416,-22.4162 128.7075,-17.568 72,-50.8714 59.0432,-58.4808 56.1528,-64.5462 48.7662,-73.4433"/>
<polygon fill="#000000" stroke="#000000" points="46.1466,-71.1217 42,-80.8714 51.3215,-75.8355 46.1466,-71.1217"/>
<text text-anchor="middle" x="203.6821" y="-28.3705" font-family="Arial" font-size="10.00" fill="#696969"> reset </text>
</g>
</g>
</svg>
